{
    "asset" : {
        "generator" : "Khronos glTF Blender I/O v1.2.75",
        "version" : "2.0"
    },
    "scene" : 0,
    "scenes" : [
        {
            "name" : "Scene",
            "nodes" : [
                0,
                2,
                3
            ]
        }
    ],
    "nodes" : [
        {
            "mesh" : 0,
            "name" : "polySurface45_lambert1_0",
            "translation" : [
                0,
                0,
                -0.09590965509414673
            ]
        },
        {
            "mesh" : 1,
            "name" : "polySurface46_lambert1_0",
            "translation" : [
                0,
                0,
                -0.09590965509414673
            ]
        },
        {
            "children" : [
                1
            ],
            "name" : "polySurface46",
            "translation" : [
                0,
                -0.10863075405359268,
                0.39678430557250977
            ]
        },
        {
            "mesh" : 2,
            "name" : "Curve",
            "rotation" : [
                0,
                0.7071067690849304,
                -0.7071067690849304,
                -3.0908619663705394e-08
            ],
            "scale" : [
                2.656097888946533,
                2.656097888946533,
                2.656097888946533
            ],
            "translation" : [
                -0.8207987546920776,
                -2.3566362857818604,
                0.28884273767471313
            ]
        }
    ],
    "materials" : [
        {
            "doubleSided" : true,
            "emissiveFactor" : [
                0,
                0,
                0
            ],
            "name" : "SVGMat",
            "pbrMetallicRoughness" : {
                "baseColorFactor" : [
                    0,
                    0.15592655539512634,
                    0.7912980914115906,
                    1
                ],
                "metallicFactor" : 0.800000011920929,
                "roughnessFactor" : 0.699999988079071
            }
        }
    ],
    "meshes" : [
        {
            "name" : "polySurface45_lambert1_0",
            "primitives" : [
                {
                    "attributes" : {
                        "POSITION" : 0,
                        "NORMAL" : 1,
                        "TEXCOORD_0" : 2
                    },
                    "indices" : 3,
                    "material" : 0
                }
            ]
        },
        {
            "name" : "polySurface46_lambert1_0",
            "primitives" : [
                {
                    "attributes" : {
                        "POSITION" : 4,
                        "NORMAL" : 5,
                        "TEXCOORD_0" : 6
                    },
                    "indices" : 7,
                    "material" : 0
                }
            ]
        },
        {
            "name" : "Curve",
            "primitives" : [
                {
                    "attributes" : {
                        "POSITION" : 8,
                        "NORMAL" : 9,
                        "TEXCOORD_0" : 10
                    },
                    "indices" : 11,
                    "material" : 0
                }
            ]
        }
    ],
    "accessors" : [
        {
            "bufferView" : 0,
            "componentType" : 5126,
            "count" : 6288,
            "max" : [
                1.6929383277893066,
                8.464712142944336,
                0.2903953194618225
            ],
            "min" : [
                -1.657926321029663,
                2.643249273300171,
                -0.0952201783657074
            ],
            "type" : "VEC3"
        },
        {
            "bufferView" : 1,
            "componentType" : 5126,
            "count" : 6288,
            "type" : "VEC3"
        },
        {
            "bufferView" : 2,
            "componentType" : 5126,
            "count" : 6288,
            "type" : "VEC2"
        },
        {
            "bufferView" : 3,
            "componentType" : 5123,
            "count" : 27792,
            "type" : "SCALAR"
        },
        {
            "bufferView" : 4,
            "componentType" : 5126,
            "count" : 3213,
            "max" : [
                0.8552217483520508,
                7.264876365661621,
                -0.05967259407043457
            ],
            "min" : [
                -0.8202093839645386,
                3.597682476043701,
                -0.3347787857055664
            ],
            "type" : "VEC3"
        },
        {
            "bufferView" : 5,
            "componentType" : 5126,
            "count" : 3213,
            "type" : "VEC3"
        },
        {
            "bufferView" : 6,
            "componentType" : 5126,
            "count" : 3213,
            "type" : "VEC2"
        },
        {
            "bufferView" : 7,
            "componentType" : 5123,
            "count" : 8424,
            "type" : "SCALAR"
        },
        {
            "bufferView" : 8,
            "componentType" : 5126,
            "count" : 17972,
            "max" : [
                2.092714309692383,
                0.2057829201221466,
                -0.3435520529747009
            ],
            "min" : [
                -2.5617761611938477,
                0,
                -1.6459718942642212
            ],
            "type" : "VEC3"
        },
        {
            "bufferView" : 9,
            "componentType" : 5126,
            "count" : 17972,
            "type" : "VEC3"
        },
        {
            "bufferView" : 10,
            "componentType" : 5126,
            "count" : 17972,
            "type" : "VEC2"
        },
        {
            "bufferView" : 11,
            "componentType" : 5123,
            "count" : 28560,
            "type" : "SCALAR"
        }
    ],
    "bufferViews" : [
        {
            "buffer" : 0,
            "byteLength" : 75456,
            "byteOffset" : 0
        },
        {
            "buffer" : 0,
            "byteLength" : 75456,
            "byteOffset" : 75456
        },
        {
            "buffer" : 0,
            "byteLength" : 50304,
            "byteOffset" : 150912
        },
        {
            "buffer" : 0,
            "byteLength" : 55584,
            "byteOffset" : 201216
        },
        {
            "buffer" : 0,
            "byteLength" : 38556,
            "byteOffset" : 256800
        },
        {
            "buffer" : 0,
            "byteLength" : 38556,
            "byteOffset" : 295356
        },
        {
            "buffer" : 0,
            "byteLength" : 25704,
            "byteOffset" : 333912
        },
        {
            "buffer" : 0,
            "byteLength" : 16848,
            "byteOffset" : 359616
        },
        {
            "buffer" : 0,
            "byteLength" : 215664,
            "byteOffset" : 376464
        },
        {
            "buffer" : 0,
            "byteLength" : 215664,
            "byteOffset" : 592128
        },
        {
            "buffer" : 0,
            "byteLength" : 143776,
            "byteOffset" : 807792
        },
        {
            "buffer" : 0,
            "byteLength" : 57120,
            "byteOffset" : 951568
        }
    ],
    "buffers" : [
        {
            "byteLength" : 1008688,
            "uri" : "data:application/octet-stream;base64,"
        }
    ]
}
