<svg
          width="541"
          height="62"
          viewBox="0 0 541 62"
          fill="none"
          xmlns="http://www.w3.org/2000/svg"
        >
          <path
            d="M30.358 61.08C25.318 61.08 20.908 60.3 17.128 58.74C13.348 57.18 10.198 55.05 7.67805 52.35C5.21805 49.59 3.35805 46.38 2.09805 42.72C0.898047 39 0.298047 35.01 0.298047 30.75C0.298047 27.21 0.898047 23.64 2.09805 20.04C3.35805 16.44 5.21805 13.2 7.67805 10.32C10.198 7.38 13.348 5.01 17.128 3.21C20.908 1.35 25.318 0.419995 30.358 0.419995C32.338 0.419995 34.138 0.479996 35.758 0.599998C37.438 0.659997 39.028 0.809997 40.528 1.05C42.028 1.23 43.498 1.5 44.938 1.86C46.378 2.16 47.878 2.52 49.438 2.94C49.498 4.56 49.708 6.54 50.0681 8.88C50.4281 11.22 50.908 13.59 51.508 15.99C51.028 16.23 50.548 16.35 50.0681 16.35C49.5881 16.35 49.138 16.29 48.718 16.17C48.358 16.05 48.118 15.72 47.9981 15.18C46.9181 11.22 45.208 8.4 42.868 6.72C40.528 5.04 37.138 4.2 32.698 4.2C28.978 4.2 25.678 4.8 22.798 6C19.978 7.2 17.578 8.88 15.598 11.04C13.678 13.2 12.208 15.81 11.188 18.87C10.228 21.87 9.74805 25.23 9.74805 28.95C9.74805 33.09 10.378 36.9 11.638 40.38C12.898 43.86 14.578 46.86 16.678 49.38C18.838 51.9 21.328 53.85 24.148 55.23C27.028 56.61 30.088 57.3 33.328 57.3C35.908 57.3 38.068 57.06 39.808 56.58C41.608 56.04 43.078 55.29 44.2181 54.33C45.4181 53.37 46.4081 52.2 47.1881 50.82C48.0281 49.38 48.808 47.76 49.528 45.96C49.948 45.06 50.6681 44.61 51.6881 44.61C51.9881 44.61 52.2881 44.67 52.5881 44.79C52.9481 44.85 53.2181 44.94 53.3981 45.06C52.678 47.16 51.958 49.47 51.238 51.99C50.518 54.51 49.918 57.03 49.438 59.55C46.4981 60.03 43.4981 60.39 40.438 60.63C37.378 60.93 34.018 61.08 30.358 61.08ZM85.3431 21.03C87.0831 21.03 88.3731 21.45 89.2131 22.29C90.0531 23.13 90.4731 24.06 90.4731 25.08C90.4731 25.44 90.4131 25.77 90.2931 26.07C90.1731 26.37 89.8731 26.7 89.3931 27.06C88.9731 27.36 88.3431 27.75 87.5031 28.23C86.7231 28.65 85.6131 29.19 84.1731 29.85C83.6331 29.19 82.9731 28.62 82.1931 28.14C81.4731 27.66 80.6631 27.42 79.7631 27.42C78.7431 27.42 77.8131 27.72 76.9731 28.32C76.1331 28.86 75.4131 29.64 74.8131 30.66C74.2131 31.62 73.7331 32.76 73.3731 34.08C73.0731 35.34 72.9231 36.66 72.9231 38.04V53.52C72.9231 54.84 73.6131 55.83 74.9931 56.49C76.3731 57.09 78.3531 57.57 80.9331 57.93C81.5331 58.05 81.8331 58.41 81.8331 59.01C81.8331 59.37 81.7731 59.85 81.6531 60.45C80.9931 60.39 80.1531 60.33 79.1331 60.27C78.1731 60.27 77.1531 60.24 76.0731 60.18C74.9931 60.12 73.8831 60.06 72.7431 60C71.6031 60 70.5531 60 69.5931 60C67.9731 60 66.2931 60.03 64.5531 60.09C62.8131 60.21 61.1631 60.33 59.6031 60.45C59.4831 59.85 59.4231 59.37 59.4231 59.01C59.4231 58.41 59.6931 58.05 60.2331 57.93C61.6131 57.69 62.8131 57.33 63.8331 56.85C64.9131 56.37 65.4531 55.68 65.4531 54.78V31.92C65.4531 30.66 65.3631 29.61 65.1831 28.77C65.0631 27.93 64.8231 27.27 64.4631 26.79C64.1031 26.25 63.5631 25.86 62.8431 25.62C62.1831 25.38 61.3131 25.2 60.2331 25.08C59.4531 24.96 59.0631 24.57 59.0631 23.91C59.0631 23.55 59.1231 23.13 59.2431 22.65C60.0231 22.65 61.1031 22.62 62.4831 22.56C63.9231 22.44 65.0931 22.32 65.9931 22.2C67.3131 21.96 68.4531 21.72 69.4131 21.48C70.4331 21.18 71.1831 21.03 71.6631 21.03C72.5031 21.03 72.9231 21.48 72.9231 22.38V28.41C74.8431 26.31 76.7631 24.57 78.6831 23.19C80.6631 21.75 82.8831 21.03 85.3431 21.03ZM124 51.63C124.42 51.21 124.87 51 125.35 51C125.95 51 126.52 51.51 127.06 52.53C126.28 53.61 125.38 54.66 124.36 55.68C123.34 56.7 122.11 57.63 120.67 58.47C119.29 59.25 117.7 59.88 115.9 60.36C114.1 60.84 112.03 61.08 109.69 61.08C107.29 61.08 105.01 60.69 102.85 59.91C100.69 59.13 98.7695 57.93 97.0895 56.31C95.4695 54.69 94.1495 52.68 93.1295 50.28C92.1695 47.88 91.6895 45.06 91.6895 41.82C91.6895 38.76 92.2595 35.94 93.3995 33.36C94.5995 30.78 96.1295 28.59 97.9895 26.79C99.8495 24.93 101.89 23.49 104.11 22.47C106.39 21.45 108.58 20.94 110.68 20.94C116.26 20.94 120.31 22.56 122.83 25.8C125.41 29.04 126.7 33.27 126.7 38.49C126.7 38.85 126.52 39.03 126.16 39.03L100.06 40.2C100.06 42.54 100.39 44.7 101.05 46.68C101.71 48.66 102.64 50.37 103.84 51.81C105.04 53.25 106.48 54.39 108.16 55.23C109.9 56.01 111.85 56.4 114.01 56.4C115.93 56.4 117.76 55.95 119.5 55.05C121.3 54.15 122.8 53.01 124 51.63ZM109.42 24.18C106.42 24.18 104.08 25.35 102.4 27.69C100.72 30.03 99.8795 33.09 99.8795 36.87L116.89 36.06C117.79 36.06 118.24 35.67 118.24 34.89C118.24 33.75 118.06 32.55 117.7 31.29C117.34 30.03 116.8 28.89 116.08 27.87C115.36 26.79 114.43 25.92 113.29 25.26C112.21 24.54 110.92 24.18 109.42 24.18ZM170.785 57.57C171.445 57.57 171.805 58.2 171.865 59.46C170.305 60.54 168.325 61.08 165.925 61.08C164.605 61.08 163.465 60.87 162.505 60.45C161.545 60.09 160.735 59.58 160.075 58.92C159.415 58.26 158.905 57.51 158.545 56.67C158.185 55.83 157.945 54.96 157.825 54.06C156.325 56.76 154.525 58.62 152.425 59.64C150.385 60.6 148.015 61.08 145.315 61.08C144.115 61.08 142.825 60.96 141.445 60.72C140.125 60.54 138.865 60.12 137.665 59.46C136.465 58.8 135.475 57.87 134.695 56.67C133.915 55.47 133.525 53.88 133.525 51.9C133.525 49.68 134.035 47.82 135.055 46.32C136.135 44.76 137.485 43.5 139.105 42.54C140.785 41.52 142.585 40.71 144.505 40.11C146.485 39.51 148.375 39 150.175 38.58C151.195 38.4 152.125 38.22 152.965 38.04C153.865 37.8 154.645 37.56 155.305 37.32C156.145 37.08 156.655 36.75 156.835 36.33C157.075 35.91 157.195 35.1 157.195 33.9C157.195 31.08 156.655 28.77 155.575 26.97C154.495 25.11 152.575 24.18 149.815 24.18C148.795 24.18 147.925 24.3 147.205 24.54C146.485 24.78 145.885 25.17 145.405 25.71C144.925 26.19 144.505 26.85 144.145 27.69C143.785 28.53 143.425 29.52 143.065 30.66C142.885 31.32 142.465 31.8 141.805 32.1C141.205 32.4 140.155 32.76 138.655 33.18C138.295 33.3 137.845 33.42 137.305 33.54C136.765 33.66 136.315 33.72 135.955 33.72C135.355 33.72 135.055 33.09 135.055 31.83C135.055 30.51 135.565 29.19 136.585 27.87C137.605 26.55 138.895 25.38 140.455 24.36C142.075 23.34 143.815 22.53 145.675 21.93C147.535 21.27 149.305 20.94 150.985 20.94C153.085 20.94 154.975 21.12 156.655 21.48C158.335 21.84 159.775 22.5 160.975 23.46C162.175 24.42 163.075 25.71 163.675 27.33C164.335 28.95 164.665 31.05 164.665 33.63V49.11C164.665 51.21 164.725 52.74 164.845 53.7C165.025 54.6 165.265 55.32 165.565 55.86C165.985 56.7 166.435 57.27 166.915 57.57C167.455 57.81 167.995 57.93 168.535 57.93C169.195 57.93 169.645 57.87 169.885 57.75C170.185 57.63 170.485 57.57 170.785 57.57ZM157.195 40.02L154.315 40.47C152.755 40.77 151.225 41.13 149.725 41.55C148.285 41.97 146.995 42.57 145.855 43.35C144.715 44.07 143.785 45 143.065 46.14C142.405 47.28 142.075 48.69 142.075 50.37C142.075 52.65 142.645 54.39 143.785 55.59C144.985 56.79 146.455 57.39 148.195 57.39C149.335 57.39 150.445 57.15 151.525 56.67C152.665 56.13 153.625 55.41 154.405 54.51C155.245 53.55 155.905 52.44 156.385 51.18C156.925 49.92 157.195 48.54 157.195 47.04V40.02ZM196.505 54.69C196.805 54.39 197.045 54.21 197.225 54.15C197.465 54.09 197.645 54.06 197.765 54.06C198.305 54.06 198.785 54.45 199.205 55.23C197.645 56.97 195.965 58.38 194.165 59.46C192.365 60.54 190.445 61.08 188.405 61.08C187.205 61.08 186.065 60.93 184.985 60.63C183.905 60.39 182.975 59.88 182.195 59.1C181.415 58.32 180.785 57.27 180.305 55.95C179.885 54.57 179.675 52.8 179.675 50.64V25.8H174.275V24.81C174.275 24.39 174.335 24 174.455 23.64C174.635 23.28 174.965 23.1 175.445 23.1C177.065 23.1 178.385 22.68 179.405 21.84C180.425 21 181.265 19.92 181.925 18.6C182.645 17.16 183.275 15.81 183.815 14.55C184.355 13.29 184.955 12.66 185.615 12.66H187.235V22.02H197.765C197.765 23.28 197.615 24.24 197.315 24.9C197.075 25.5 196.595 25.8 195.875 25.8H187.235V48.12C187.235 50.04 187.325 51.6 187.505 52.8C187.685 53.94 187.955 54.84 188.315 55.5C188.675 56.1 189.095 56.49 189.575 56.67C190.055 56.85 190.595 56.94 191.195 56.94C192.215 56.94 193.145 56.73 193.985 56.31C194.885 55.83 195.725 55.29 196.505 54.69ZM234.654 51.63C235.074 51.21 235.524 51 236.004 51C236.604 51 237.174 51.51 237.714 52.53C236.934 53.61 236.034 54.66 235.014 55.68C233.994 56.7 232.764 57.63 231.324 58.47C229.944 59.25 228.354 59.88 226.554 60.36C224.754 60.84 222.684 61.08 220.344 61.08C217.944 61.08 215.664 60.69 213.504 59.91C211.344 59.13 209.424 57.93 207.744 56.31C206.124 54.69 204.804 52.68 203.784 50.28C202.824 47.88 202.344 45.06 202.344 41.82C202.344 38.76 202.914 35.94 204.054 33.36C205.254 30.78 206.784 28.59 208.644 26.79C210.504 24.93 212.544 23.49 214.764 22.47C217.044 21.45 219.234 20.94 221.334 20.94C226.914 20.94 230.964 22.56 233.484 25.8C236.064 29.04 237.354 33.27 237.354 38.49C237.354 38.85 237.174 39.03 236.814 39.03L210.714 40.2C210.714 42.54 211.044 44.7 211.704 46.68C212.364 48.66 213.294 50.37 214.494 51.81C215.694 53.25 217.134 54.39 218.814 55.23C220.554 56.01 222.504 56.4 224.664 56.4C226.584 56.4 228.414 55.95 230.154 55.05C231.954 54.15 233.454 53.01 234.654 51.63ZM220.074 24.18C217.074 24.18 214.734 25.35 213.054 27.69C211.374 30.03 210.534 33.09 210.534 36.87L227.544 36.06C228.444 36.06 228.894 35.67 228.894 34.89C228.894 33.75 228.714 32.55 228.354 31.29C227.994 30.03 227.454 28.89 226.734 27.87C226.014 26.79 225.084 25.92 223.944 25.26C222.864 24.54 221.574 24.18 220.074 24.18ZM302.226 15.63C301.626 15.75 301.176 15.81 300.876 15.81C300.096 15.81 299.526 15.66 299.166 15.36C298.806 15.06 298.536 14.73 298.356 14.37C296.796 10.95 294.936 8.46 292.776 6.9C290.616 5.34 287.676 4.55999 283.956 4.55999C282.516 4.55999 281.136 4.77 279.816 5.19C278.556 5.55 277.446 6.12 276.486 6.9C275.526 7.62 274.746 8.52 274.146 9.6C273.606 10.68 273.336 11.88 273.336 13.2C273.336 16.02 274.506 18.33 276.846 20.13C279.246 21.93 282.756 23.76 287.376 25.62C293.136 27.9 297.366 30.45 300.066 33.27C302.826 36.03 304.206 39.45 304.206 43.53C304.206 45.99 303.816 48.3 303.036 50.46C302.316 52.56 301.146 54.42 299.526 56.04C297.966 57.6 295.926 58.83 293.406 59.73C290.886 60.63 287.856 61.08 284.316 61.08C280.596 61.08 277.206 60.69 274.146 59.91C271.146 59.13 268.596 58.11 266.496 56.85C266.316 54.33 266.046 51.9 265.686 49.56C265.326 47.22 264.906 44.88 264.426 42.54C264.846 42.36 265.356 42.27 265.956 42.27C266.676 42.27 267.216 42.45 267.576 42.81C267.996 43.11 268.356 43.62 268.656 44.34C270.156 48.66 272.076 51.84 274.416 53.88C276.816 55.92 280.146 56.94 284.406 56.94C286.326 56.94 288.006 56.67 289.446 56.13C290.886 55.59 292.086 54.84 293.046 53.88C294.006 52.92 294.726 51.84 295.206 50.64C295.686 49.44 295.926 48.15 295.926 46.77C295.926 43.65 294.846 41.19 292.686 39.39C290.586 37.59 287.556 35.97 283.596 34.53C281.016 33.57 278.676 32.58 276.576 31.56C274.476 30.48 272.676 29.25 271.176 27.87C269.676 26.49 268.506 24.9 267.666 23.1C266.886 21.24 266.496 19.05 266.496 16.53C266.496 14.31 266.886 12.24 267.666 10.32C268.506 8.34 269.676 6.63 271.176 5.19C272.736 3.75 274.596 2.61 276.756 1.77C278.916 0.929999 281.346 0.509999 284.046 0.509999C286.866 0.509999 289.566 0.779999 292.146 1.32C294.726 1.86 297.636 2.76 300.876 4.02C300.996 5.82 301.146 7.77 301.326 9.87C301.566 11.91 301.866 13.83 302.226 15.63ZM345.044 51.63C345.464 51.21 345.914 51 346.394 51C346.994 51 347.564 51.51 348.104 52.53C347.324 53.61 346.424 54.66 345.404 55.68C344.384 56.7 343.154 57.63 341.714 58.47C340.334 59.25 338.744 59.88 336.944 60.36C335.144 60.84 333.074 61.08 330.734 61.08C328.334 61.08 326.054 60.69 323.894 59.91C321.734 59.13 319.814 57.93 318.134 56.31C316.514 54.69 315.194 52.68 314.174 50.28C313.214 47.88 312.734 45.06 312.734 41.82C312.734 38.76 313.304 35.94 314.444 33.36C315.644 30.78 317.174 28.59 319.034 26.79C320.894 24.93 322.934 23.49 325.154 22.47C327.434 21.45 329.624 20.94 331.724 20.94C337.304 20.94 341.354 22.56 343.874 25.8C346.454 29.04 347.744 33.27 347.744 38.49C347.744 38.85 347.564 39.03 347.204 39.03L321.104 40.2C321.104 42.54 321.434 44.7 322.094 46.68C322.754 48.66 323.684 50.37 324.884 51.81C326.084 53.25 327.524 54.39 329.204 55.23C330.944 56.01 332.894 56.4 335.054 56.4C336.974 56.4 338.804 55.95 340.544 55.05C342.344 54.15 343.844 53.01 345.044 51.63ZM330.464 24.18C327.464 24.18 325.124 25.35 323.444 27.69C321.764 30.03 320.924 33.09 320.924 36.87L337.934 36.06C338.834 36.06 339.284 35.67 339.284 34.89C339.284 33.75 339.104 32.55 338.744 31.29C338.384 30.03 337.844 28.89 337.124 27.87C336.404 26.79 335.474 25.92 334.334 25.26C333.254 24.54 331.964 24.18 330.464 24.18ZM378.69 32.01C378.21 32.01 377.85 31.92 377.61 31.74C377.43 31.5 377.31 31.26 377.25 31.02C376.83 28.56 375.84 26.82 374.28 25.8C372.78 24.72 370.89 24.18 368.61 24.18C366.87 24.18 365.31 24.69 363.93 25.71C362.61 26.67 361.95 28.02 361.95 29.76C361.95 31.32 362.55 32.64 363.75 33.72C365.01 34.74 367.26 35.76 370.5 36.78C372.24 37.32 373.83 37.92 375.27 38.58C376.77 39.24 378.03 40.05 379.05 41.01C380.13 41.91 380.97 43.05 381.57 44.43C382.17 45.75 382.47 47.34 382.47 49.2C382.47 50.76 382.17 52.26 381.57 53.7C381.03 55.14 380.16 56.4 378.96 57.48C377.82 58.56 376.35 59.43 374.55 60.09C372.81 60.75 370.71 61.08 368.25 61.08C366.33 61.08 364.17 60.84 361.77 60.36C359.43 59.94 357.3 59.19 355.38 58.11C355.26 56.55 355.14 54.93 355.02 53.25C354.96 51.51 354.93 49.77 354.93 48.03H355.83C356.43 48.03 356.94 48.15 357.36 48.39C357.78 48.57 358.02 48.9 358.08 49.38C358.32 51.9 359.28 53.94 360.96 55.5C362.7 57 365.1 57.75 368.16 57.75C370.62 57.75 372.51 57.21 373.83 56.13C375.15 54.99 375.81 53.46 375.81 51.54C375.81 49.56 375.09 48.06 373.65 47.04C372.21 45.96 370.08 45 367.26 44.16C363.72 43.08 360.93 41.67 358.89 39.93C356.91 38.19 355.92 35.64 355.92 32.28C355.92 30.72 356.22 29.25 356.82 27.87C357.42 26.49 358.26 25.29 359.34 24.27C360.42 23.25 361.74 22.44 363.3 21.84C364.86 21.24 366.6 20.94 368.52 20.94C370.92 20.94 373.17 21.27 375.27 21.93C377.43 22.53 379.11 23.19 380.31 23.91C380.37 24.39 380.43 24.99 380.49 25.71C380.55 26.37 380.58 27.09 380.58 27.87C380.64 28.59 380.67 29.34 380.67 30.12C380.73 30.84 380.76 31.5 380.76 32.1L378.69 32.01ZM413.495 32.01C413.015 32.01 412.655 31.92 412.415 31.74C412.235 31.5 412.115 31.26 412.055 31.02C411.635 28.56 410.645 26.82 409.085 25.8C407.585 24.72 405.695 24.18 403.415 24.18C401.675 24.18 400.115 24.69 398.735 25.71C397.415 26.67 396.755 28.02 396.755 29.76C396.755 31.32 397.355 32.64 398.555 33.72C399.815 34.74 402.065 35.76 405.305 36.78C407.045 37.32 408.635 37.92 410.075 38.58C411.575 39.24 412.835 40.05 413.855 41.01C414.935 41.91 415.775 43.05 416.375 44.43C416.975 45.75 417.275 47.34 417.275 49.2C417.275 50.76 416.975 52.26 416.375 53.7C415.835 55.14 414.965 56.4 413.765 57.48C412.625 58.56 411.155 59.43 409.355 60.09C407.615 60.75 405.515 61.08 403.055 61.08C401.135 61.08 398.975 60.84 396.575 60.36C394.235 59.94 392.105 59.19 390.185 58.11C390.065 56.55 389.945 54.93 389.825 53.25C389.765 51.51 389.735 49.77 389.735 48.03H390.635C391.235 48.03 391.745 48.15 392.165 48.39C392.585 48.57 392.825 48.9 392.885 49.38C393.125 51.9 394.085 53.94 395.765 55.5C397.505 57 399.905 57.75 402.965 57.75C405.425 57.75 407.315 57.21 408.635 56.13C409.955 54.99 410.615 53.46 410.615 51.54C410.615 49.56 409.895 48.06 408.455 47.04C407.015 45.96 404.885 45 402.065 44.16C398.525 43.08 395.735 41.67 393.695 39.93C391.715 38.19 390.725 35.64 390.725 32.28C390.725 30.72 391.025 29.25 391.625 27.87C392.225 26.49 393.065 25.29 394.145 24.27C395.225 23.25 396.545 22.44 398.105 21.84C399.665 21.24 401.405 20.94 403.325 20.94C405.725 20.94 407.975 21.27 410.075 21.93C412.235 22.53 413.915 23.19 415.115 23.91C415.175 24.39 415.235 24.99 415.295 25.71C415.355 26.37 415.385 27.09 415.385 27.87C415.445 28.59 415.475 29.34 415.475 30.12C415.535 30.84 415.565 31.5 415.565 32.1L413.495 32.01ZM433.54 60C432.52 60 431.47 60 430.39 60C429.37 60.06 428.41 60.12 427.51 60.18C426.61 60.24 425.83 60.3 425.17 60.36C424.51 60.42 424.09 60.45 423.91 60.45C423.91 60.39 423.88 60.18 423.82 59.82C423.76 59.46 423.73 59.19 423.73 59.01C423.73 58.41 424 58.05 424.54 57.93C426.1 57.63 427.36 57.27 428.32 56.85C429.28 56.43 429.76 55.74 429.76 54.78V30.3C429.76 28.5 429.43 27.21 428.77 26.43C428.17 25.65 426.82 25.17 424.72 24.99C423.94 24.87 423.55 24.45 423.55 23.73C423.55 23.43 423.61 23.04 423.73 22.56C424.51 22.56 425.59 22.53 426.97 22.47C428.41 22.35 429.58 22.23 430.48 22.11C431.86 21.87 433.09 21.63 434.17 21.39C435.25 21.09 436.03 20.94 436.51 20.94C437.35 20.94 437.77 21.39 437.77 22.29C437.77 23.13 437.68 24.15 437.5 25.35C437.32 26.49 437.23 28.02 437.23 29.94V54.78C437.23 55.74 437.68 56.43 438.58 56.85C439.54 57.27 440.86 57.63 442.54 57.93C443.02 58.05 443.26 58.41 443.26 59.01C443.26 59.19 443.23 59.46 443.17 59.82C443.17 60.18 443.14 60.39 443.08 60.45C442.9 60.45 442.48 60.42 441.82 60.36C441.22 60.3 440.47 60.24 439.57 60.18C438.67 60.12 437.68 60.06 436.6 60C435.58 60 434.56 60 433.54 60ZM428.32 5.91C428.32 4.47 428.8 3.24 429.76 2.22C430.78 1.14 432.04 0.599998 433.54 0.599998C434.98 0.599998 436.18 1.14 437.14 2.22C438.1 3.24 438.58 4.47 438.58 5.91C438.58 7.47 438.1 8.73 437.14 9.69C436.18 10.65 434.98 11.13 433.54 11.13C432.04 11.13 430.78 10.65 429.76 9.69C428.8 8.73 428.32 7.47 428.32 5.91ZM448.609 41.01C448.609 38.25 449.119 35.64 450.139 33.18C451.219 30.72 452.659 28.59 454.459 26.79C456.259 24.99 458.359 23.58 460.759 22.56C463.219 21.48 465.859 20.94 468.679 20.94C471.619 20.94 474.319 21.45 476.779 22.47C479.239 23.43 481.339 24.78 483.079 26.52C484.879 28.26 486.259 30.39 487.219 32.91C488.239 35.37 488.749 38.07 488.749 41.01C488.749 43.83 488.209 46.47 487.129 48.93C486.109 51.33 484.699 53.43 482.899 55.23C481.099 57.03 478.969 58.47 476.509 59.55C474.109 60.57 471.499 61.08 468.679 61.08C465.739 61.08 463.039 60.6 460.579 59.64C458.119 58.62 455.989 57.24 454.189 55.5C452.449 53.76 451.069 51.66 450.049 49.2C449.089 46.74 448.609 44.01 448.609 41.01ZM457.069 38.04C457.069 40.26 457.309 42.54 457.789 44.88C458.269 47.22 458.989 49.35 459.949 51.27C460.969 53.13 462.259 54.69 463.819 55.95C465.379 57.15 467.269 57.75 469.489 57.75C472.909 57.75 475.549 56.55 477.409 54.15C479.329 51.75 480.289 48.66 480.289 44.88C480.289 42.66 480.049 40.35 479.569 37.95C479.149 35.49 478.429 33.27 477.409 31.29C476.449 29.25 475.159 27.57 473.539 26.25C471.979 24.93 470.029 24.27 467.689 24.27C464.509 24.27 461.929 25.38 459.949 27.6C458.029 29.76 457.069 33.24 457.069 38.04ZM534.523 54.87C534.523 55.77 535.063 56.46 536.143 56.94C537.223 57.36 538.423 57.69 539.743 57.93C540.283 58.05 540.553 58.41 540.553 59.01C540.553 59.37 540.493 59.85 540.373 60.45C538.813 60.33 537.283 60.21 535.783 60.09C534.283 60.03 532.663 60 530.923 60C529.303 60 527.683 60.03 526.063 60.09C524.503 60.21 522.943 60.33 521.383 60.45C521.263 59.85 521.203 59.37 521.203 59.01C521.203 58.41 521.473 58.05 522.013 57.93C523.273 57.69 524.413 57.36 525.433 56.94C526.453 56.46 526.963 55.77 526.963 54.87V37.23C526.963 35.73 526.873 34.35 526.693 33.09C526.513 31.83 526.153 30.75 525.613 29.85C525.133 28.89 524.443 28.17 523.543 27.69C522.703 27.15 521.593 26.88 520.213 26.88C518.713 26.88 517.243 27.15 515.803 27.69C514.363 28.17 513.073 28.92 511.933 29.94C510.853 30.9 509.983 32.1 509.323 33.54C508.663 34.98 508.333 36.63 508.333 38.49V54.87C508.333 55.77 508.843 56.46 509.863 56.94C510.943 57.36 512.083 57.69 513.283 57.93C513.823 58.05 514.093 58.41 514.093 59.01C514.093 59.37 514.033 59.85 513.913 60.45C512.353 60.33 510.823 60.21 509.323 60.09C507.823 60.03 506.233 60 504.553 60C502.813 60 501.163 60.03 499.603 60.09C498.043 60.21 496.513 60.33 495.013 60.45C494.893 59.85 494.833 59.37 494.833 59.01C494.833 58.41 495.103 58.05 495.643 57.93C496.963 57.69 498.163 57.36 499.243 56.94C500.323 56.46 500.863 55.74 500.863 54.78V30.3C500.863 28.5 500.533 27.21 499.873 26.43C499.273 25.65 497.923 25.17 495.823 24.99C495.043 24.87 494.653 24.45 494.653 23.73C494.653 23.43 494.713 23.04 494.833 22.56C495.613 22.56 496.693 22.53 498.073 22.47C499.513 22.35 500.683 22.23 501.583 22.11C502.963 21.87 504.193 21.63 505.273 21.39C506.353 21.09 507.133 20.94 507.613 20.94C508.453 20.94 508.873 21.39 508.873 22.29C508.873 23.13 508.783 24.15 508.603 25.35C508.423 26.49 508.333 28.02 508.333 29.94C510.913 27.06 513.373 24.84 515.713 23.28C518.113 21.72 520.723 20.94 523.543 20.94C527.203 20.94 529.933 22.02 531.733 24.18C533.593 26.28 534.523 29.22 534.523 33V54.87Z"
            fill="black"
          />
</svg>