<svg width="453" height="82" viewBox="0 0 453 82" fill="none" xmlns="http://www.w3.org/2000/svg">
<path d="M56.5515 3.21C56.6715 2.97 56.7915 2.73 56.9115 2.48999C57.0915 2.25 57.3615 2.07 57.7215 1.95C58.0815 1.83 58.5615 1.74 59.1615 1.68C59.7615 1.56 60.6015 1.5 61.6815 1.5C62.1615 1.5 62.7915 1.5 63.5715 1.5C64.3515 1.44 65.1915 1.41 66.0915 1.41C66.9915 1.35 67.8915 1.29 68.7915 1.22999C69.7515 1.17 70.6215 1.11 71.4015 1.05C71.5215 1.65 71.5815 2.13 71.5815 2.48999C71.5815 3.45 71.2815 3.96 70.6815 4.02C68.5215 4.32 67.0815 4.74 66.3615 5.28C65.6415 5.76 65.2815 6.42 65.2815 7.26C65.2815 7.32 65.3115 8.13 65.3715 9.69C65.4915 11.19 65.6415 13.74 65.8215 17.34C66.0015 20.88 66.2115 25.62 66.4515 31.56C66.7515 37.5 67.0815 44.88 67.4415 53.7C67.5015 54.84 67.8915 55.68 68.6115 56.22C69.3315 56.76 70.8015 57.21 73.0215 57.57C73.3215 57.63 73.5315 57.81 73.6515 58.11C73.8315 58.35 73.9215 58.65 73.9215 59.01C73.9215 59.37 73.8615 59.85 73.7415 60.45C71.6415 60.33 69.7215 60.21 67.9815 60.09C66.3015 60.03 64.7415 60 63.3015 60C62.7015 60 61.9515 60 61.0515 60C60.1515 60.06 59.1915 60.09 58.1715 60.09C57.2115 60.15 56.2515 60.21 55.2915 60.27C54.3315 60.33 53.4915 60.39 52.7715 60.45C52.6515 59.85 52.5915 59.37 52.5915 59.01C52.5915 58.05 52.8915 57.57 53.4915 57.57C55.8915 57.09 57.5115 56.61 58.3515 56.13C59.2515 55.65 59.7015 54.84 59.7015 53.7C59.7015 53.52 59.6415 52.41 59.5215 50.37C59.4615 48.33 59.3415 45.84 59.1615 42.9C59.0415 39.96 58.8915 36.78 58.7115 33.36C58.5915 29.94 58.4415 26.73 58.2615 23.73C58.1415 20.67 58.0215 18.06 57.9015 15.9C57.7815 13.68 57.7215 12.33 57.7215 11.85L38.0115 59.46C37.7715 60 37.5315 60.39 37.2915 60.63C37.1115 60.93 36.8415 61.08 36.4815 61.08C36.0615 61.08 35.7915 61.05 35.6715 60.99L13.6215 10.41C13.5615 11.01 13.4715 12.48 13.3515 14.82C13.2915 17.1 13.1715 19.83 12.9915 23.01C12.8715 26.19 12.7215 29.55 12.5415 33.09C12.3615 36.63 12.1815 39.9 12.0015 42.9C11.8815 45.9 11.7615 48.42 11.6415 50.46C11.5815 52.5 11.5515 53.58 11.5515 53.7C11.5515 55.56 13.5915 56.85 17.6715 57.57C18.2715 57.63 18.5715 58.11 18.5715 59.01C18.5715 59.37 18.5115 59.85 18.3915 60.45C16.7715 60.33 15.1815 60.21 13.6215 60.09C12.0615 60.03 10.6815 60 9.48152 60C8.52152 60 7.23152 60.03 5.61152 60.09C3.99152 60.21 2.46152 60.33 1.02152 60.45C0.901524 59.85 0.841524 59.37 0.841524 59.01C0.841524 58.17 1.14152 57.69 1.74152 57.57C3.36152 57.27 4.65152 56.85 5.61152 56.31C6.63152 55.71 7.20152 54.84 7.32152 53.7C7.32152 53.16 7.38152 51.66 7.50152 49.2C7.62152 46.68 7.74152 43.71 7.86152 40.29C8.04152 36.87 8.22152 33.24 8.40152 29.4C8.58152 25.56 8.73152 22.02 8.85152 18.78C9.03152 15.48 9.15152 12.78 9.21152 10.68C9.33152 8.52 9.39152 7.41 9.39152 7.35C9.39152 6.39 9.00152 5.7 8.22152 5.28C7.50152 4.8 6.09152 4.38 3.99152 4.02C3.39152 3.96 3.09152 3.45 3.09152 2.48999C3.09152 2.13 3.15152 1.65 3.27152 1.05C4.05152 1.11 4.92152 1.17 5.88152 1.22999C6.90152 1.29 7.89152 1.35 8.85152 1.41C9.87152 1.41 10.8315 1.44 11.7315 1.5C12.6315 1.5 13.3515 1.5 13.8915 1.5C14.9715 1.5 15.8115 1.56 16.4115 1.68C17.0115 1.74 17.4915 1.83 17.8515 1.95C18.2115 2.07 18.4515 2.25 18.5715 2.48999C18.7515 2.73 18.9015 2.97 19.0215 3.21L38.2815 48.12L56.5515 3.21ZM99.8521 50.19C100.752 47.91 101.742 45.57 102.822 43.17C103.902 40.71 104.892 38.4 105.792 36.24C106.752 34.08 107.532 32.13 108.132 30.39C108.732 28.65 109.032 27.36 109.032 26.52C109.032 25.98 108.792 25.59 108.312 25.35C107.832 25.05 107.292 24.81 106.692 24.63C106.152 24.39 105.642 24.18 105.162 24C104.682 23.76 104.442 23.4 104.442 22.92C104.442 22.8 104.472 22.62 104.532 22.38C104.592 22.14 104.652 21.93 104.712 21.75C107.052 21.93 109.542 22.02 112.182 22.02C113.562 22.02 114.762 22.02 115.782 22.02C116.802 21.96 117.762 21.87 118.662 21.75C118.782 21.93 118.842 22.14 118.842 22.38C118.902 22.62 118.932 22.8 118.932 22.92C118.932 23.58 118.542 24 117.762 24.18C116.862 24.36 116.142 24.54 115.602 24.72C115.122 24.9 114.702 25.14 114.342 25.44C114.042 25.74 113.742 26.13 113.442 26.61C113.202 27.09 112.902 27.78 112.542 28.68L94.0921 72.24C92.8921 75.12 91.0921 77.4 88.6921 79.08C86.2921 80.76 83.7121 81.6 80.9521 81.6C80.4721 81.6 80.1121 81.45 79.8721 81.15C79.6921 80.91 79.6021 80.61 79.6021 80.25C79.6021 79.59 79.6921 78.87 79.8721 78.09C80.0521 77.37 80.2921 76.68 80.5921 76.02C80.8921 75.42 81.2221 74.91 81.5821 74.49C82.0021 74.13 82.4221 73.95 82.8421 73.95C83.3221 73.95 83.7421 73.98 84.1021 74.04C84.5221 74.16 84.9721 74.22 85.4521 74.22C87.0721 74.22 88.2721 73.89 89.0521 73.23C89.8321 72.63 90.5221 71.64 91.1221 70.26L95.7121 59.55L81.8521 28.68C81.4321 27.84 81.0721 27.18 80.7721 26.7C80.4721 26.16 80.1421 25.74 79.7821 25.44C79.4221 25.08 79.0021 24.84 78.5221 24.72C78.0421 24.54 77.4121 24.39 76.6321 24.27C75.8521 24.09 75.4621 23.64 75.4621 22.92C75.4621 22.8 75.4621 22.62 75.4621 22.38C75.5221 22.14 75.6121 21.93 75.7321 21.75C76.9321 21.87 78.1321 21.96 79.3321 22.02C80.5921 22.02 82.0021 22.02 83.5621 22.02H86.1721C87.6121 22.02 88.9621 22.02 90.2221 22.02C91.4821 21.96 92.7421 21.87 94.0021 21.75C94.1221 21.93 94.1821 22.14 94.1821 22.38C94.2421 22.62 94.2721 22.8 94.2721 22.92C94.2721 23.64 93.8821 24.03 93.1021 24.09C91.7221 24.33 90.7921 24.6 90.3121 24.9C89.8321 25.14 89.5921 25.5 89.5921 25.98C89.5921 26.28 89.7721 27.03 90.1321 28.23C90.4921 29.43 91.0921 30.93 91.9321 32.73L99.8521 50.19ZM180.608 15.63C180.008 15.75 179.558 15.81 179.258 15.81C178.478 15.81 177.908 15.66 177.548 15.36C177.188 15.06 176.918 14.73 176.738 14.37C175.178 10.95 173.318 8.46 171.158 6.9C168.998 5.34 166.058 4.55999 162.338 4.55999C160.898 4.55999 159.518 4.77 158.198 5.19C156.938 5.55 155.828 6.12 154.868 6.9C153.908 7.62 153.128 8.52 152.528 9.6C151.988 10.68 151.718 11.88 151.718 13.2C151.718 16.02 152.888 18.33 155.228 20.13C157.628 21.93 161.138 23.76 165.758 25.62C171.518 27.9 175.748 30.45 178.448 33.27C181.208 36.03 182.588 39.45 182.588 43.53C182.588 45.99 182.198 48.3 181.418 50.46C180.698 52.56 179.528 54.42 177.908 56.04C176.348 57.6 174.308 58.83 171.788 59.73C169.268 60.63 166.238 61.08 162.698 61.08C158.978 61.08 155.588 60.69 152.528 59.91C149.528 59.13 146.978 58.11 144.878 56.85C144.698 54.33 144.428 51.9 144.068 49.56C143.708 47.22 143.288 44.88 142.808 42.54C143.228 42.36 143.738 42.27 144.338 42.27C145.058 42.27 145.598 42.45 145.958 42.81C146.378 43.11 146.738 43.62 147.038 44.34C148.538 48.66 150.458 51.84 152.798 53.88C155.198 55.92 158.528 56.94 162.788 56.94C164.708 56.94 166.388 56.67 167.828 56.13C169.268 55.59 170.468 54.84 171.428 53.88C172.388 52.92 173.108 51.84 173.588 50.64C174.068 49.44 174.308 48.15 174.308 46.77C174.308 43.65 173.228 41.19 171.068 39.39C168.968 37.59 165.938 35.97 161.978 34.53C159.398 33.57 157.058 32.58 154.958 31.56C152.858 30.48 151.058 29.25 149.558 27.87C148.058 26.49 146.888 24.9 146.048 23.1C145.268 21.24 144.878 19.05 144.878 16.53C144.878 14.31 145.268 12.24 146.048 10.32C146.888 8.34 148.058 6.63 149.558 5.19C151.118 3.75 152.978 2.61 155.138 1.77C157.298 0.929999 159.728 0.509999 162.428 0.509999C165.248 0.509999 167.948 0.779999 170.528 1.32C173.108 1.86 176.018 2.76 179.258 4.02C179.378 5.82 179.528 7.77 179.708 9.87C179.948 11.91 180.248 13.83 180.608 15.63ZM223.426 51.63C223.846 51.21 224.296 51 224.776 51C225.376 51 225.946 51.51 226.486 52.53C225.706 53.61 224.806 54.66 223.786 55.68C222.766 56.7 221.536 57.63 220.096 58.47C218.716 59.25 217.126 59.88 215.326 60.36C213.526 60.84 211.456 61.08 209.116 61.08C206.716 61.08 204.436 60.69 202.276 59.91C200.116 59.13 198.196 57.93 196.516 56.31C194.896 54.69 193.576 52.68 192.556 50.28C191.596 47.88 191.116 45.06 191.116 41.82C191.116 38.76 191.686 35.94 192.826 33.36C194.026 30.78 195.556 28.59 197.416 26.79C199.276 24.93 201.316 23.49 203.536 22.47C205.816 21.45 208.006 20.94 210.106 20.94C215.686 20.94 219.736 22.56 222.256 25.8C224.836 29.04 226.126 33.27 226.126 38.49C226.126 38.85 225.946 39.03 225.586 39.03L199.486 40.2C199.486 42.54 199.816 44.7 200.476 46.68C201.136 48.66 202.066 50.37 203.266 51.81C204.466 53.25 205.906 54.39 207.586 55.23C209.326 56.01 211.276 56.4 213.436 56.4C215.356 56.4 217.186 55.95 218.926 55.05C220.726 54.15 222.226 53.01 223.426 51.63ZM208.846 24.18C205.846 24.18 203.506 25.35 201.826 27.69C200.146 30.03 199.306 33.09 199.306 36.87L216.316 36.06C217.216 36.06 217.666 35.67 217.666 34.89C217.666 33.75 217.486 32.55 217.126 31.29C216.766 30.03 216.226 28.89 215.506 27.87C214.786 26.79 213.856 25.92 212.716 25.26C211.636 24.54 210.346 24.18 208.846 24.18ZM257.072 32.01C256.592 32.01 256.232 31.92 255.992 31.74C255.812 31.5 255.692 31.26 255.632 31.02C255.212 28.56 254.222 26.82 252.662 25.8C251.162 24.72 249.272 24.18 246.992 24.18C245.252 24.18 243.692 24.69 242.312 25.71C240.992 26.67 240.332 28.02 240.332 29.76C240.332 31.32 240.932 32.64 242.132 33.72C243.392 34.74 245.642 35.76 248.882 36.78C250.622 37.32 252.212 37.92 253.652 38.58C255.152 39.24 256.412 40.05 257.432 41.01C258.512 41.91 259.352 43.05 259.952 44.43C260.552 45.75 260.852 47.34 260.852 49.2C260.852 50.76 260.552 52.26 259.952 53.7C259.412 55.14 258.542 56.4 257.342 57.48C256.202 58.56 254.732 59.43 252.932 60.09C251.192 60.75 249.092 61.08 246.632 61.08C244.712 61.08 242.552 60.84 240.152 60.36C237.812 59.94 235.682 59.19 233.762 58.11C233.642 56.55 233.522 54.93 233.402 53.25C233.342 51.51 233.312 49.77 233.312 48.03H234.212C234.812 48.03 235.322 48.15 235.742 48.39C236.162 48.57 236.402 48.9 236.462 49.38C236.702 51.9 237.662 53.94 239.342 55.5C241.082 57 243.482 57.75 246.542 57.75C249.002 57.75 250.892 57.21 252.212 56.13C253.532 54.99 254.192 53.46 254.192 51.54C254.192 49.56 253.472 48.06 252.032 47.04C250.592 45.96 248.462 45 245.642 44.16C242.102 43.08 239.312 41.67 237.272 39.93C235.292 38.19 234.302 35.64 234.302 32.28C234.302 30.72 234.602 29.25 235.202 27.87C235.802 26.49 236.642 25.29 237.722 24.27C238.802 23.25 240.122 22.44 241.682 21.84C243.242 21.24 244.982 20.94 246.902 20.94C249.302 20.94 251.552 21.27 253.652 21.93C255.812 22.53 257.492 23.19 258.692 23.91C258.752 24.39 258.812 24.99 258.872 25.71C258.932 26.37 258.962 27.09 258.962 27.87C259.022 28.59 259.052 29.34 259.052 30.12C259.112 30.84 259.142 31.5 259.142 32.1L257.072 32.01ZM291.877 32.01C291.397 32.01 291.037 31.92 290.797 31.74C290.617 31.5 290.497 31.26 290.437 31.02C290.017 28.56 289.027 26.82 287.467 25.8C285.967 24.72 284.077 24.18 281.797 24.18C280.057 24.18 278.497 24.69 277.117 25.71C275.797 26.67 275.137 28.02 275.137 29.76C275.137 31.32 275.737 32.64 276.937 33.72C278.197 34.74 280.447 35.76 283.687 36.78C285.427 37.32 287.017 37.92 288.457 38.58C289.957 39.24 291.217 40.05 292.237 41.01C293.317 41.91 294.157 43.05 294.757 44.43C295.357 45.75 295.657 47.34 295.657 49.2C295.657 50.76 295.357 52.26 294.757 53.7C294.217 55.14 293.347 56.4 292.147 57.48C291.007 58.56 289.537 59.43 287.737 60.09C285.997 60.75 283.897 61.08 281.437 61.08C279.517 61.08 277.357 60.84 274.957 60.36C272.617 59.94 270.487 59.19 268.567 58.11C268.447 56.55 268.327 54.93 268.207 53.25C268.147 51.51 268.117 49.77 268.117 48.03H269.017C269.617 48.03 270.127 48.15 270.547 48.39C270.967 48.57 271.207 48.9 271.267 49.38C271.507 51.9 272.467 53.94 274.147 55.5C275.887 57 278.287 57.75 281.347 57.75C283.807 57.75 285.697 57.21 287.017 56.13C288.337 54.99 288.997 53.46 288.997 51.54C288.997 49.56 288.277 48.06 286.837 47.04C285.397 45.96 283.267 45 280.447 44.16C276.907 43.08 274.117 41.67 272.077 39.93C270.097 38.19 269.107 35.64 269.107 32.28C269.107 30.72 269.407 29.25 270.007 27.87C270.607 26.49 271.447 25.29 272.527 24.27C273.607 23.25 274.927 22.44 276.487 21.84C278.047 21.24 279.787 20.94 281.707 20.94C284.107 20.94 286.357 21.27 288.457 21.93C290.617 22.53 292.297 23.19 293.497 23.91C293.557 24.39 293.617 24.99 293.677 25.71C293.737 26.37 293.767 27.09 293.767 27.87C293.827 28.59 293.857 29.34 293.857 30.12C293.917 30.84 293.947 31.5 293.947 32.1L291.877 32.01ZM311.922 60C310.902 60 309.852 60 308.772 60C307.752 60.06 306.792 60.12 305.892 60.18C304.992 60.24 304.212 60.3 303.552 60.36C302.892 60.42 302.472 60.45 302.292 60.45C302.292 60.39 302.262 60.18 302.202 59.82C302.142 59.46 302.112 59.19 302.112 59.01C302.112 58.41 302.382 58.05 302.922 57.93C304.482 57.63 305.742 57.27 306.702 56.85C307.662 56.43 308.142 55.74 308.142 54.78V30.3C308.142 28.5 307.812 27.21 307.152 26.43C306.552 25.65 305.202 25.17 303.102 24.99C302.322 24.87 301.932 24.45 301.932 23.73C301.932 23.43 301.992 23.04 302.112 22.56C302.892 22.56 303.972 22.53 305.352 22.47C306.792 22.35 307.962 22.23 308.862 22.11C310.242 21.87 311.472 21.63 312.552 21.39C313.632 21.09 314.412 20.94 314.892 20.94C315.732 20.94 316.152 21.39 316.152 22.29C316.152 23.13 316.062 24.15 315.882 25.35C315.702 26.49 315.612 28.02 315.612 29.94V54.78C315.612 55.74 316.062 56.43 316.962 56.85C317.922 57.27 319.242 57.63 320.922 57.93C321.402 58.05 321.642 58.41 321.642 59.01C321.642 59.19 321.612 59.46 321.552 59.82C321.552 60.18 321.522 60.39 321.462 60.45C321.282 60.45 320.862 60.42 320.202 60.36C319.602 60.3 318.852 60.24 317.952 60.18C317.052 60.12 316.062 60.06 314.982 60C313.962 60 312.942 60 311.922 60ZM306.702 5.91C306.702 4.47 307.182 3.24 308.142 2.22C309.162 1.14 310.422 0.599998 311.922 0.599998C313.362 0.599998 314.562 1.14 315.522 2.22C316.482 3.24 316.962 4.47 316.962 5.91C316.962 7.47 316.482 8.73 315.522 9.69C314.562 10.65 313.362 11.13 311.922 11.13C310.422 11.13 309.162 10.65 308.142 9.69C307.182 8.73 306.702 7.47 306.702 5.91ZM326.991 41.01C326.991 38.25 327.501 35.64 328.521 33.18C329.601 30.72 331.041 28.59 332.841 26.79C334.641 24.99 336.741 23.58 339.141 22.56C341.601 21.48 344.241 20.94 347.061 20.94C350.001 20.94 352.701 21.45 355.161 22.47C357.621 23.43 359.721 24.78 361.461 26.52C363.261 28.26 364.641 30.39 365.601 32.91C366.621 35.37 367.131 38.07 367.131 41.01C367.131 43.83 366.591 46.47 365.511 48.93C364.491 51.33 363.081 53.43 361.281 55.23C359.481 57.03 357.351 58.47 354.891 59.55C352.491 60.57 349.881 61.08 347.061 61.08C344.121 61.08 341.421 60.6 338.961 59.64C336.501 58.62 334.371 57.24 332.571 55.5C330.831 53.76 329.451 51.66 328.431 49.2C327.471 46.74 326.991 44.01 326.991 41.01ZM335.451 38.04C335.451 40.26 335.691 42.54 336.171 44.88C336.651 47.22 337.371 49.35 338.331 51.27C339.351 53.13 340.641 54.69 342.201 55.95C343.761 57.15 345.651 57.75 347.871 57.75C351.291 57.75 353.931 56.55 355.791 54.15C357.711 51.75 358.671 48.66 358.671 44.88C358.671 42.66 358.431 40.35 357.951 37.95C357.531 35.49 356.811 33.27 355.791 31.29C354.831 29.25 353.541 27.57 351.921 26.25C350.361 24.93 348.411 24.27 346.071 24.27C342.891 24.27 340.311 25.38 338.331 27.6C336.411 29.76 335.451 33.24 335.451 38.04ZM412.905 54.87C412.905 55.77 413.445 56.46 414.525 56.94C415.605 57.36 416.805 57.69 418.125 57.93C418.665 58.05 418.935 58.41 418.935 59.01C418.935 59.37 418.875 59.85 418.755 60.45C417.195 60.33 415.665 60.21 414.165 60.09C412.665 60.03 411.045 60 409.305 60C407.685 60 406.065 60.03 404.445 60.09C402.885 60.21 401.325 60.33 399.765 60.45C399.645 59.85 399.585 59.37 399.585 59.01C399.585 58.41 399.855 58.05 400.395 57.93C401.655 57.69 402.795 57.36 403.815 56.94C404.835 56.46 405.345 55.77 405.345 54.87V37.23C405.345 35.73 405.255 34.35 405.075 33.09C404.895 31.83 404.535 30.75 403.995 29.85C403.515 28.89 402.825 28.17 401.925 27.69C401.085 27.15 399.975 26.88 398.595 26.88C397.095 26.88 395.625 27.15 394.185 27.69C392.745 28.17 391.455 28.92 390.315 29.94C389.235 30.9 388.365 32.1 387.705 33.54C387.045 34.98 386.715 36.63 386.715 38.49V54.87C386.715 55.77 387.225 56.46 388.245 56.94C389.325 57.36 390.465 57.69 391.665 57.93C392.205 58.05 392.475 58.41 392.475 59.01C392.475 59.37 392.415 59.85 392.295 60.45C390.735 60.33 389.205 60.21 387.705 60.09C386.205 60.03 384.615 60 382.935 60C381.195 60 379.545 60.03 377.985 60.09C376.425 60.21 374.895 60.33 373.395 60.45C373.275 59.85 373.215 59.37 373.215 59.01C373.215 58.41 373.485 58.05 374.025 57.93C375.345 57.69 376.545 57.36 377.625 56.94C378.705 56.46 379.245 55.74 379.245 54.78V30.3C379.245 28.5 378.915 27.21 378.255 26.43C377.655 25.65 376.305 25.17 374.205 24.99C373.425 24.87 373.035 24.45 373.035 23.73C373.035 23.43 373.095 23.04 373.215 22.56C373.995 22.56 375.075 22.53 376.455 22.47C377.895 22.35 379.065 22.23 379.965 22.11C381.345 21.87 382.575 21.63 383.655 21.39C384.735 21.09 385.515 20.94 385.995 20.94C386.835 20.94 387.255 21.39 387.255 22.29C387.255 23.13 387.165 24.15 386.985 25.35C386.805 26.49 386.715 28.02 386.715 29.94C389.295 27.06 391.755 24.84 394.095 23.28C396.495 21.72 399.105 20.94 401.925 20.94C405.585 20.94 408.315 22.02 410.115 24.18C411.975 26.28 412.905 29.22 412.905 33V54.87ZM448.674 32.01C448.194 32.01 447.834 31.92 447.594 31.74C447.414 31.5 447.294 31.26 447.234 31.02C446.814 28.56 445.824 26.82 444.264 25.8C442.764 24.72 440.874 24.18 438.594 24.18C436.854 24.18 435.294 24.69 433.914 25.71C432.594 26.67 431.934 28.02 431.934 29.76C431.934 31.32 432.534 32.64 433.734 33.72C434.994 34.74 437.244 35.76 440.484 36.78C442.224 37.32 443.814 37.92 445.254 38.58C446.754 39.24 448.014 40.05 449.034 41.01C450.114 41.91 450.954 43.05 451.554 44.43C452.154 45.75 452.454 47.34 452.454 49.2C452.454 50.76 452.154 52.26 451.554 53.7C451.014 55.14 450.144 56.4 448.944 57.48C447.804 58.56 446.334 59.43 444.534 60.09C442.794 60.75 440.694 61.08 438.234 61.08C436.314 61.08 434.154 60.84 431.754 60.36C429.414 59.94 427.284 59.19 425.364 58.11C425.244 56.55 425.124 54.93 425.004 53.25C424.944 51.51 424.914 49.77 424.914 48.03H425.814C426.414 48.03 426.924 48.15 427.344 48.39C427.764 48.57 428.004 48.9 428.064 49.38C428.304 51.9 429.264 53.94 430.944 55.5C432.684 57 435.084 57.75 438.144 57.75C440.604 57.75 442.494 57.21 443.814 56.13C445.134 54.99 445.794 53.46 445.794 51.54C445.794 49.56 445.074 48.06 443.634 47.04C442.194 45.96 440.064 45 437.244 44.16C433.704 43.08 430.914 41.67 428.874 39.93C426.894 38.19 425.904 35.64 425.904 32.28C425.904 30.72 426.204 29.25 426.804 27.87C427.404 26.49 428.244 25.29 429.324 24.27C430.404 23.25 431.724 22.44 433.284 21.84C434.844 21.24 436.584 20.94 438.504 20.94C440.904 20.94 443.154 21.27 445.254 21.93C447.414 22.53 449.094 23.19 450.294 23.91C450.354 24.39 450.414 24.99 450.474 25.71C450.534 26.37 450.564 27.09 450.564 27.87C450.624 28.59 450.654 29.34 450.654 30.12C450.714 30.84 450.744 31.5 450.744 32.1L448.674 32.01Z" fill="black"/>
</svg>
