<svg width="415" height="46" viewBox="0 0 415 46" fill="none" xmlns="http://www.w3.org/2000/svg">
<path d="M20.8837 10.336C20.5637 10.4 20.3237 10.432 20.1637 10.432C19.7477 10.432 19.4437 10.352 19.2517 10.192C19.0597 10.032 18.9157 9.856 18.8197 9.664C17.9877 7.84 16.9957 6.512 15.8437 5.68C14.6917 4.848 13.1237 4.432 11.1397 4.432C10.3717 4.432 9.63569 4.544 8.93169 4.768C8.25969 4.96 7.66769 5.264 7.15569 5.68C6.64369 6.064 6.22769 6.544 5.90769 7.12C5.61969 7.696 5.47569 8.336 5.47569 9.04C5.47569 10.544 6.09969 11.776 7.34769 12.736C8.62769 13.696 10.4997 14.672 12.9637 15.664C16.0357 16.88 18.2917 18.24 19.7317 19.744C21.2037 21.216 21.9397 23.04 21.9397 25.216C21.9397 26.528 21.7317 27.76 21.3157 28.912C20.9317 30.032 20.3077 31.024 19.4437 31.888C18.6117 32.72 17.5237 33.376 16.1797 33.856C14.8357 34.336 13.2197 34.576 11.3317 34.576C9.34769 34.576 7.53969 34.368 5.90769 33.952C4.30769 33.536 2.94769 32.992 1.82769 32.32C1.73169 30.976 1.58769 29.68 1.39569 28.432C1.20369 27.184 0.979688 25.936 0.723688 24.688C0.947688 24.592 1.21969 24.544 1.53969 24.544C1.92369 24.544 2.21169 24.64 2.40369 24.832C2.62769 24.992 2.81969 25.264 2.97969 25.648C3.77969 27.952 4.80369 29.648 6.05169 30.736C7.33169 31.824 9.10769 32.368 11.3797 32.368C12.4037 32.368 13.2997 32.224 14.0677 31.936C14.8357 31.648 15.4757 31.248 15.9877 30.736C16.4997 30.224 16.8837 29.648 17.1397 29.008C17.3957 28.368 17.5237 27.68 17.5237 26.944C17.5237 25.28 16.9477 23.968 15.7957 23.008C14.6757 22.048 13.0597 21.184 10.9477 20.416C9.57169 19.904 8.32369 19.376 7.20369 18.832C6.08369 18.256 5.12369 17.6 4.32369 16.864C3.52369 16.128 2.89969 15.28 2.45169 14.32C2.03569 13.328 1.82769 12.16 1.82769 10.816C1.82769 9.632 2.03569 8.528 2.45169 7.504C2.89969 6.448 3.52369 5.536 4.32369 4.768C5.15569 4 6.14769 3.392 7.29969 2.944C8.45169 2.496 9.74769 2.272 11.1877 2.272C12.6917 2.272 14.1317 2.416 15.5077 2.704C16.8837 2.992 18.4357 3.472 20.1637 4.144C20.2277 5.104 20.3077 6.144 20.4037 7.264C20.5317 8.352 20.6917 9.376 20.8837 10.336ZM36.9209 31.168C37.0809 31.008 37.2089 30.912 37.3049 30.88C37.4329 30.848 37.5289 30.832 37.5929 30.832C37.8809 30.832 38.1369 31.04 38.3609 31.456C37.5289 32.384 36.6329 33.136 35.6729 33.712C34.7129 34.288 33.6889 34.576 32.6009 34.576C31.9609 34.576 31.3529 34.496 30.7769 34.336C30.2009 34.208 29.7049 33.936 29.2889 33.52C28.8729 33.104 28.5369 32.544 28.2809 31.84C28.0569 31.104 27.9449 30.16 27.9449 29.008V15.76H25.0649V15.232C25.0649 15.008 25.0969 14.8 25.1609 14.608C25.2569 14.416 25.4329 14.32 25.6889 14.32C26.5529 14.32 27.2569 14.096 27.8009 13.648C28.3449 13.2 28.7929 12.624 29.1449 11.92C29.5289 11.152 29.8649 10.432 30.1529 9.76C30.4409 9.088 30.7609 8.752 31.1129 8.752H31.9769V13.744H37.5929C37.5929 14.416 37.5129 14.928 37.3529 15.28C37.2249 15.6 36.9689 15.76 36.5849 15.76H31.9769V27.664C31.9769 28.688 32.0249 29.52 32.1209 30.16C32.2169 30.768 32.3609 31.248 32.5529 31.6C32.7449 31.92 32.9689 32.128 33.2249 32.224C33.4809 32.32 33.7689 32.368 34.0889 32.368C34.6329 32.368 35.1289 32.256 35.5769 32.032C36.0569 31.776 36.5049 31.488 36.9209 31.168ZM60.3757 32.704C60.7277 32.704 60.9197 33.04 60.9517 33.712C60.1197 34.288 59.0637 34.576 57.7837 34.576C57.0797 34.576 56.4717 34.464 55.9597 34.24C55.4477 34.048 55.0157 33.776 54.6637 33.424C54.3117 33.072 54.0397 32.672 53.8477 32.224C53.6557 31.776 53.5277 31.312 53.4637 30.832C52.6637 32.272 51.7037 33.264 50.5837 33.808C49.4957 34.32 48.2317 34.576 46.7917 34.576C46.1517 34.576 45.4637 34.512 44.7277 34.384C44.0237 34.288 43.3517 34.064 42.7117 33.712C42.0717 33.36 41.5437 32.864 41.1277 32.224C40.7117 31.584 40.5037 30.736 40.5037 29.68C40.5037 28.496 40.7757 27.504 41.3197 26.704C41.8957 25.872 42.6157 25.2 43.4797 24.688C44.3757 24.144 45.3357 23.712 46.3597 23.392C47.4157 23.072 48.4237 22.8 49.3837 22.576C49.9277 22.48 50.4237 22.384 50.8717 22.288C51.3517 22.16 51.7677 22.032 52.1197 21.904C52.5677 21.776 52.8397 21.6 52.9357 21.376C53.0637 21.152 53.1277 20.72 53.1277 20.08C53.1277 18.576 52.8397 17.344 52.2637 16.384C51.6877 15.392 50.6637 14.896 49.1917 14.896C48.6477 14.896 48.1837 14.96 47.7997 15.088C47.4157 15.216 47.0957 15.424 46.8397 15.712C46.5837 15.968 46.3597 16.32 46.1677 16.768C45.9757 17.216 45.7837 17.744 45.5917 18.352C45.4957 18.704 45.2717 18.96 44.9197 19.12C44.5997 19.28 44.0397 19.472 43.2397 19.696C43.0477 19.76 42.8077 19.824 42.5197 19.888C42.2317 19.952 41.9917 19.984 41.7997 19.984C41.4797 19.984 41.3197 19.648 41.3197 18.976C41.3197 18.272 41.5917 17.568 42.1357 16.864C42.6797 16.16 43.3677 15.536 44.1997 14.992C45.0637 14.448 45.9917 14.016 46.9837 13.696C47.9757 13.344 48.9197 13.168 49.8157 13.168C50.9357 13.168 51.9437 13.264 52.8397 13.456C53.7357 13.648 54.5037 14 55.1437 14.512C55.7837 15.024 56.2637 15.712 56.5837 16.576C56.9357 17.44 57.1117 18.56 57.1117 19.936V28.192C57.1117 29.312 57.1437 30.128 57.2077 30.64C57.3037 31.12 57.4317 31.504 57.5917 31.792C57.8157 32.24 58.0557 32.544 58.3117 32.704C58.5997 32.832 58.8877 32.896 59.1757 32.896C59.5277 32.896 59.7677 32.864 59.8957 32.8C60.0557 32.736 60.2157 32.704 60.3757 32.704ZM53.1277 23.344L51.5917 23.584C50.7597 23.744 49.9437 23.936 49.1437 24.16C48.3757 24.384 47.6877 24.704 47.0797 25.12C46.4717 25.504 45.9757 26 45.5917 26.608C45.2397 27.216 45.0637 27.968 45.0637 28.864C45.0637 30.08 45.3677 31.008 45.9757 31.648C46.6157 32.288 47.3997 32.608 48.3277 32.608C48.9357 32.608 49.5277 32.48 50.1037 32.224C50.7117 31.936 51.2237 31.552 51.6397 31.072C52.0877 30.56 52.4397 29.968 52.6957 29.296C52.9837 28.624 53.1277 27.888 53.1277 27.088V23.344ZM76.7752 13.216C77.7032 13.216 78.3912 13.44 78.8392 13.888C79.2872 14.336 79.5112 14.832 79.5112 15.376C79.5112 15.568 79.4792 15.744 79.4152 15.904C79.3512 16.064 79.1912 16.24 78.9352 16.432C78.7112 16.592 78.3752 16.8 77.9272 17.056C77.5112 17.28 76.9192 17.568 76.1512 17.92C75.8632 17.568 75.5112 17.264 75.0952 17.008C74.7112 16.752 74.2792 16.624 73.7992 16.624C73.2552 16.624 72.7592 16.784 72.3112 17.104C71.8632 17.392 71.4792 17.808 71.1592 18.352C70.8392 18.864 70.5832 19.472 70.3912 20.176C70.2312 20.848 70.1512 21.552 70.1512 22.288V30.544C70.1512 31.248 70.5192 31.776 71.2552 32.128C71.9912 32.448 73.0472 32.704 74.4232 32.896C74.7432 32.96 74.9032 33.152 74.9032 33.472C74.9032 33.664 74.8712 33.92 74.8072 34.24C74.4552 34.208 74.0072 34.176 73.4632 34.144C72.9512 34.144 72.4072 34.128 71.8312 34.096C71.2552 34.064 70.6632 34.032 70.0552 34C69.4472 34 68.8872 34 68.3752 34C67.5112 34 66.6152 34.016 65.6872 34.048C64.7592 34.112 63.8792 34.176 63.0472 34.24C62.9832 33.92 62.9512 33.664 62.9512 33.472C62.9512 33.152 63.0952 32.96 63.3832 32.896C64.1192 32.768 64.7592 32.576 65.3032 32.32C65.8792 32.064 66.1672 31.696 66.1672 31.216V19.024C66.1672 18.352 66.1192 17.792 66.0232 17.344C65.9592 16.896 65.8312 16.544 65.6392 16.288C65.4472 16 65.1592 15.792 64.7752 15.664C64.4232 15.536 63.9592 15.44 63.3832 15.376C62.9672 15.312 62.7592 15.104 62.7592 14.752C62.7592 14.56 62.7912 14.336 62.8552 14.08C63.2712 14.08 63.8472 14.064 64.5832 14.032C65.3512 13.968 65.9752 13.904 66.4552 13.84C67.1592 13.712 67.7672 13.584 68.2792 13.456C68.8232 13.296 69.2232 13.216 69.4792 13.216C69.9272 13.216 70.1512 13.456 70.1512 13.936V17.152C71.1752 16.032 72.1992 15.104 73.2232 14.368C74.2792 13.6 75.4632 13.216 76.7752 13.216ZM92.5147 31.168C92.6747 31.008 92.8027 30.912 92.8987 30.88C93.0267 30.848 93.1227 30.832 93.1867 30.832C93.4747 30.832 93.7307 31.04 93.9547 31.456C93.1227 32.384 92.2267 33.136 91.2667 33.712C90.3067 34.288 89.2827 34.576 88.1947 34.576C87.5547 34.576 86.9467 34.496 86.3707 34.336C85.7947 34.208 85.2987 33.936 84.8827 33.52C84.4667 33.104 84.1307 32.544 83.8747 31.84C83.6507 31.104 83.5387 30.16 83.5387 29.008V15.76H80.6587V15.232C80.6587 15.008 80.6907 14.8 80.7547 14.608C80.8507 14.416 81.0267 14.32 81.2827 14.32C82.1467 14.32 82.8507 14.096 83.3947 13.648C83.9387 13.2 84.3867 12.624 84.7387 11.92C85.1227 11.152 85.4587 10.432 85.7467 9.76C86.0347 9.088 86.3547 8.752 86.7067 8.752H87.5707V13.744H93.1867C93.1867 14.416 93.1067 14.928 92.9467 15.28C92.8187 15.6 92.5627 15.76 92.1787 15.76H87.5707V27.664C87.5707 28.688 87.6187 29.52 87.7147 30.16C87.8107 30.768 87.9547 31.248 88.1467 31.6C88.3387 31.92 88.5627 32.128 88.8187 32.224C89.0747 32.32 89.3627 32.368 89.6827 32.368C90.2267 32.368 90.7227 32.256 91.1707 32.032C91.6507 31.776 92.0987 31.488 92.5147 31.168ZM109.008 15.76H106.128V14.896C106.128 14.544 106.272 14.336 106.56 14.272C106.88 14.176 107.216 14.112 107.568 14.08C107.92 14.016 108.24 13.904 108.528 13.744C108.848 13.552 109.008 13.168 109.008 12.592V10.384C109.008 8.624 109.248 7.12 109.728 5.872C110.24 4.624 110.88 3.6 111.648 2.8C112.416 1.968 113.264 1.36 114.192 0.975999C115.152 0.591998 116.08 0.399998 116.976 0.399998C118.032 0.399998 118.976 0.511998 119.808 0.735999C120.672 0.927999 121.408 1.2 122.016 1.552C122.624 1.904 123.088 2.304 123.408 2.752C123.76 3.168 123.936 3.6 123.936 4.048C123.936 4.24 123.792 4.432 123.504 4.624C123.248 4.784 122.944 4.928 122.592 5.056C122.272 5.184 121.952 5.28 121.632 5.344C121.312 5.408 121.088 5.44 120.96 5.44C120.512 5.44 120.176 5.248 119.952 4.864C119.6 4.16 119.168 3.536 118.656 2.992C118.176 2.448 117.44 2.176 116.448 2.176C115.296 2.176 114.432 2.656 113.856 3.616C113.312 4.544 113.04 5.888 113.04 7.648V13.744H118.704C118.704 14.384 118.656 14.88 118.56 15.232C118.464 15.584 118.192 15.76 117.744 15.76H113.04V30.448C113.04 31.28 113.408 31.856 114.144 32.176C114.88 32.464 116.08 32.688 117.744 32.848C118.096 32.912 118.272 33.12 118.272 33.472C118.272 33.568 118.256 33.712 118.224 33.904C118.192 34.096 118.176 34.208 118.176 34.24C118.08 34.24 117.792 34.224 117.312 34.192C116.864 34.16 116.32 34.128 115.68 34.096C115.04 34.064 114.352 34.032 113.616 34C112.88 34 112.192 34 111.552 34C111.008 34 110.448 34 109.872 34C109.328 34.032 108.8 34.064 108.288 34.096C107.776 34.128 107.328 34.16 106.944 34.192C106.592 34.224 106.368 34.24 106.272 34.24C106.272 34.208 106.256 34.096 106.224 33.904C106.192 33.712 106.176 33.568 106.176 33.472C106.176 33.152 106.32 32.96 106.608 32.896C107.312 32.768 107.888 32.592 108.336 32.368C108.784 32.112 109.008 31.728 109.008 31.216V15.76ZM134.572 13.216C135.5 13.216 136.188 13.44 136.636 13.888C137.084 14.336 137.308 14.832 137.308 15.376C137.308 15.568 137.276 15.744 137.212 15.904C137.148 16.064 136.988 16.24 136.732 16.432C136.508 16.592 136.172 16.8 135.724 17.056C135.308 17.28 134.716 17.568 133.948 17.92C133.66 17.568 133.308 17.264 132.892 17.008C132.508 16.752 132.076 16.624 131.596 16.624C131.052 16.624 130.556 16.784 130.108 17.104C129.66 17.392 129.276 17.808 128.956 18.352C128.636 18.864 128.38 19.472 128.188 20.176C128.028 20.848 127.948 21.552 127.948 22.288V30.544C127.948 31.248 128.316 31.776 129.052 32.128C129.788 32.448 130.844 32.704 132.22 32.896C132.54 32.96 132.7 33.152 132.7 33.472C132.7 33.664 132.668 33.92 132.604 34.24C132.252 34.208 131.804 34.176 131.26 34.144C130.748 34.144 130.204 34.128 129.628 34.096C129.052 34.064 128.46 34.032 127.852 34C127.244 34 126.684 34 126.172 34C125.308 34 124.412 34.016 123.484 34.048C122.556 34.112 121.676 34.176 120.844 34.24C120.78 33.92 120.748 33.664 120.748 33.472C120.748 33.152 120.892 32.96 121.18 32.896C121.916 32.768 122.556 32.576 123.1 32.32C123.676 32.064 123.964 31.696 123.964 31.216V19.024C123.964 18.352 123.916 17.792 123.82 17.344C123.756 16.896 123.628 16.544 123.436 16.288C123.244 16 122.956 15.792 122.572 15.664C122.22 15.536 121.756 15.44 121.18 15.376C120.764 15.312 120.556 15.104 120.556 14.752C120.556 14.56 120.588 14.336 120.652 14.08C121.068 14.08 121.644 14.064 122.38 14.032C123.148 13.968 123.772 13.904 124.252 13.84C124.956 13.712 125.564 13.584 126.076 13.456C126.62 13.296 127.02 13.216 127.276 13.216C127.724 13.216 127.948 13.456 127.948 13.936V17.152C128.972 16.032 129.996 15.104 131.02 14.368C132.076 13.6 133.26 13.216 134.572 13.216ZM137.861 23.872C137.861 22.4 138.133 21.008 138.677 19.696C139.253 18.384 140.021 17.248 140.981 16.288C141.941 15.328 143.061 14.576 144.341 14.032C145.653 13.456 147.061 13.168 148.565 13.168C150.133 13.168 151.573 13.44 152.885 13.984C154.197 14.496 155.317 15.216 156.245 16.144C157.205 17.072 157.941 18.208 158.453 19.552C158.997 20.864 159.269 22.304 159.269 23.872C159.269 25.376 158.981 26.784 158.405 28.096C157.861 29.376 157.109 30.496 156.149 31.456C155.189 32.416 154.053 33.184 152.741 33.76C151.461 34.304 150.069 34.576 148.565 34.576C146.997 34.576 145.557 34.32 144.245 33.808C142.933 33.264 141.797 32.528 140.837 31.6C139.909 30.672 139.173 29.552 138.629 28.24C138.117 26.928 137.861 25.472 137.861 23.872ZM142.373 22.288C142.373 23.472 142.501 24.688 142.757 25.936C143.013 27.184 143.397 28.32 143.909 29.344C144.453 30.336 145.141 31.168 145.973 31.84C146.805 32.48 147.813 32.8 148.997 32.8C150.821 32.8 152.229 32.16 153.221 30.88C154.245 29.6 154.757 27.952 154.757 25.936C154.757 24.752 154.629 23.52 154.373 22.24C154.149 20.928 153.765 19.744 153.221 18.688C152.709 17.6 152.021 16.704 151.157 16C150.325 15.296 149.285 14.944 148.037 14.944C146.341 14.944 144.965 15.536 143.909 16.72C142.885 17.872 142.373 19.728 142.373 22.288ZM183.01 18.016C183.138 17.92 183.426 17.616 183.874 17.104C184.322 16.592 184.898 16.048 185.602 15.472C186.338 14.896 187.17 14.368 188.098 13.888C189.058 13.408 190.082 13.168 191.17 13.168C193.09 13.168 194.45 13.744 195.25 14.896C196.05 16.016 196.45 17.584 196.45 19.6V31.264C196.45 31.744 196.738 32.112 197.314 32.368C197.89 32.592 198.53 32.768 199.234 32.896C199.522 32.96 199.666 33.152 199.666 33.472C199.666 33.664 199.634 33.92 199.57 34.24C198.738 34.176 197.922 34.112 197.122 34.048C196.322 34.016 195.458 34 194.53 34C193.698 34 192.85 34.016 191.986 34.048C191.122 34.112 190.29 34.176 189.49 34.24C189.426 33.92 189.394 33.664 189.394 33.472C189.394 33.152 189.538 32.96 189.826 32.896C190.114 32.864 190.402 32.8 190.69 32.704C191.01 32.608 191.298 32.496 191.554 32.368C191.81 32.24 192.018 32.096 192.178 31.936C192.37 31.744 192.466 31.52 192.466 31.264V21.376C192.466 19.392 192.226 18.064 191.746 17.392C191.266 16.688 190.482 16.336 189.394 16.336C188.562 16.336 187.762 16.48 186.994 16.768C186.258 17.024 185.602 17.424 185.026 17.968C184.45 18.48 183.986 19.12 183.634 19.888C183.282 20.656 183.106 21.536 183.106 22.528V31.264C183.106 31.744 183.378 32.112 183.922 32.368C184.466 32.592 185.074 32.768 185.746 32.896C186.034 32.96 186.178 33.152 186.178 33.472C186.178 33.664 186.146 33.92 186.082 34.24C185.25 34.176 184.434 34.112 183.634 34.048C182.866 34.016 182.05 34 181.186 34C180.322 34 179.458 34.016 178.594 34.048C177.762 34.112 176.93 34.176 176.098 34.24C176.034 33.92 176.002 33.664 176.002 33.472C176.002 33.152 176.146 32.96 176.434 32.896C177.01 32.8 177.586 32.64 178.162 32.416C178.77 32.16 179.074 31.776 179.074 31.264V21.376C179.074 19.392 178.834 18.064 178.354 17.392C177.906 16.688 177.138 16.336 176.05 16.336C175.218 16.336 174.418 16.48 173.65 16.768C172.914 17.024 172.242 17.424 171.634 17.968C171.058 18.48 170.594 19.12 170.242 19.888C169.89 20.656 169.714 21.536 169.714 22.528V31.264C169.714 31.744 169.986 32.112 170.53 32.368C171.106 32.592 171.714 32.768 172.354 32.896C172.642 32.96 172.786 33.152 172.786 33.472C172.786 33.664 172.754 33.92 172.69 34.24C171.858 34.176 171.042 34.112 170.242 34.048C169.442 34.016 168.594 34 167.698 34C166.77 34 165.89 34.016 165.058 34.048C164.226 34.112 163.41 34.176 162.61 34.24C162.546 33.92 162.514 33.664 162.514 33.472C162.514 33.152 162.658 32.96 162.946 32.896C163.65 32.768 164.29 32.592 164.866 32.368C165.442 32.112 165.73 31.728 165.73 31.216V18.16C165.73 17.2 165.554 16.512 165.202 16.096C164.882 15.68 164.162 15.424 163.042 15.328C162.626 15.264 162.418 15.04 162.418 14.656C162.418 14.496 162.45 14.288 162.514 14.032C162.93 14.032 163.506 14.016 164.242 13.984C165.01 13.92 165.634 13.856 166.114 13.792C166.85 13.664 167.506 13.536 168.082 13.408C168.658 13.248 169.074 13.168 169.33 13.168C169.778 13.168 170.002 13.408 170.002 13.888C170.002 14.336 169.954 14.88 169.858 15.52C169.762 16.128 169.714 16.944 169.714 17.968C169.81 17.872 170.082 17.568 170.53 17.056C170.978 16.544 171.554 16 172.258 15.424C172.994 14.848 173.826 14.336 174.754 13.888C175.682 13.408 176.706 13.168 177.826 13.168C179.49 13.168 180.722 13.6 181.522 14.464C182.354 15.296 182.85 16.48 183.01 18.016ZM228.753 4.768V30.4C228.753 31.136 229.057 31.664 229.665 31.984C230.273 32.272 231.297 32.496 232.737 32.656C233.089 32.656 233.265 32.912 233.265 33.424C233.265 33.648 233.233 33.92 233.169 34.24C232.145 34.176 231.057 34.112 229.905 34.048C228.785 34.016 227.649 34 226.497 34C225.377 34 224.225 34.016 223.041 34.048C221.889 34.112 220.801 34.176 219.777 34.24C219.713 33.92 219.681 33.648 219.681 33.424C219.681 32.976 219.841 32.72 220.161 32.656C221.601 32.464 222.641 32.224 223.281 31.936C223.921 31.648 224.241 31.136 224.241 30.4V4.768H219.297C218.337 4.768 217.521 4.864 216.849 5.056C216.209 5.248 215.649 5.536 215.169 5.92C214.689 6.304 214.273 6.8 213.921 7.408C213.569 8.016 213.201 8.72 212.817 9.52C212.753 9.68 212.641 9.792 212.481 9.856C212.353 9.92 212.225 9.952 212.097 9.952C211.745 9.952 211.441 9.856 211.185 9.664C211.505 8.512 211.745 7.488 211.905 6.592C212.065 5.696 212.209 4.96 212.337 4.384C212.465 3.776 212.593 3.312 212.721 2.992C212.881 2.672 213.121 2.512 213.441 2.512C213.665 2.512 213.985 2.528 214.401 2.56C214.817 2.592 215.249 2.624 215.697 2.656C216.177 2.688 216.657 2.72 217.137 2.752C217.617 2.784 218.065 2.8 218.481 2.8H234.513C234.897 2.8 235.329 2.784 235.809 2.752C236.289 2.72 236.769 2.688 237.249 2.656C237.729 2.624 238.161 2.592 238.545 2.56C238.961 2.528 239.297 2.512 239.553 2.512C239.873 2.512 240.097 2.688 240.225 3.04C240.385 3.36 240.529 3.824 240.657 4.432C240.785 5.04 240.913 5.792 241.041 6.688C241.201 7.584 241.457 8.576 241.809 9.664C241.649 9.728 241.489 9.792 241.329 9.856C241.201 9.92 241.041 9.952 240.849 9.952C240.721 9.952 240.577 9.92 240.417 9.856C240.257 9.792 240.145 9.68 240.081 9.52C239.729 8.72 239.377 8.016 239.025 7.408C238.673 6.8 238.257 6.304 237.777 5.92C237.329 5.536 236.769 5.248 236.097 5.056C235.457 4.864 234.657 4.768 233.697 4.768H228.753ZM256.298 29.536C256.522 29.312 256.762 29.2 257.018 29.2C257.338 29.2 257.642 29.472 257.93 30.016C257.514 30.592 257.034 31.152 256.49 31.696C255.946 32.24 255.29 32.736 254.522 33.184C253.786 33.6 252.938 33.936 251.978 34.192C251.018 34.448 249.914 34.576 248.666 34.576C247.386 34.576 246.17 34.368 245.018 33.952C243.866 33.536 242.842 32.896 241.946 32.032C241.082 31.168 240.378 30.096 239.834 28.816C239.322 27.536 239.066 26.032 239.066 24.304C239.066 22.672 239.37 21.168 239.978 19.792C240.618 18.416 241.434 17.248 242.426 16.288C243.418 15.296 244.506 14.528 245.69 13.984C246.906 13.44 248.074 13.168 249.194 13.168C252.17 13.168 254.33 14.032 255.674 15.76C257.05 17.488 257.738 19.744 257.738 22.528C257.738 22.72 257.642 22.816 257.45 22.816L243.53 23.44C243.53 24.688 243.706 25.84 244.058 26.896C244.41 27.952 244.906 28.864 245.546 29.632C246.186 30.4 246.954 31.008 247.85 31.456C248.778 31.872 249.818 32.08 250.97 32.08C251.994 32.08 252.97 31.84 253.898 31.36C254.858 30.88 255.658 30.272 256.298 29.536ZM248.522 14.896C246.922 14.896 245.674 15.52 244.778 16.768C243.882 18.016 243.434 19.648 243.434 21.664L252.506 21.232C252.986 21.232 253.226 21.024 253.226 20.608C253.226 20 253.13 19.36 252.938 18.688C252.746 18.016 252.458 17.408 252.074 16.864C251.69 16.288 251.194 15.824 250.586 15.472C250.01 15.088 249.322 14.896 248.522 14.896ZM281.635 18.016C281.763 17.92 282.051 17.616 282.499 17.104C282.947 16.592 283.523 16.048 284.227 15.472C284.963 14.896 285.795 14.368 286.723 13.888C287.683 13.408 288.707 13.168 289.795 13.168C291.715 13.168 293.075 13.744 293.875 14.896C294.675 16.016 295.075 17.584 295.075 19.6V31.264C295.075 31.744 295.363 32.112 295.939 32.368C296.515 32.592 297.155 32.768 297.859 32.896C298.147 32.96 298.291 33.152 298.291 33.472C298.291 33.664 298.259 33.92 298.195 34.24C297.363 34.176 296.547 34.112 295.747 34.048C294.947 34.016 294.083 34 293.155 34C292.323 34 291.475 34.016 290.611 34.048C289.747 34.112 288.915 34.176 288.115 34.24C288.051 33.92 288.019 33.664 288.019 33.472C288.019 33.152 288.163 32.96 288.451 32.896C288.739 32.864 289.027 32.8 289.315 32.704C289.635 32.608 289.923 32.496 290.179 32.368C290.435 32.24 290.643 32.096 290.803 31.936C290.995 31.744 291.091 31.52 291.091 31.264V21.376C291.091 19.392 290.851 18.064 290.371 17.392C289.891 16.688 289.107 16.336 288.019 16.336C287.187 16.336 286.387 16.48 285.619 16.768C284.883 17.024 284.227 17.424 283.651 17.968C283.075 18.48 282.611 19.12 282.259 19.888C281.907 20.656 281.731 21.536 281.731 22.528V31.264C281.731 31.744 282.003 32.112 282.547 32.368C283.091 32.592 283.699 32.768 284.371 32.896C284.659 32.96 284.803 33.152 284.803 33.472C284.803 33.664 284.771 33.92 284.707 34.24C283.875 34.176 283.059 34.112 282.259 34.048C281.491 34.016 280.675 34 279.811 34C278.947 34 278.083 34.016 277.219 34.048C276.387 34.112 275.555 34.176 274.723 34.24C274.659 33.92 274.627 33.664 274.627 33.472C274.627 33.152 274.771 32.96 275.059 32.896C275.635 32.8 276.211 32.64 276.787 32.416C277.395 32.16 277.699 31.776 277.699 31.264V21.376C277.699 19.392 277.459 18.064 276.979 17.392C276.531 16.688 275.763 16.336 274.675 16.336C273.843 16.336 273.043 16.48 272.275 16.768C271.539 17.024 270.867 17.424 270.259 17.968C269.683 18.48 269.219 19.12 268.867 19.888C268.515 20.656 268.339 21.536 268.339 22.528V31.264C268.339 31.744 268.611 32.112 269.155 32.368C269.731 32.592 270.339 32.768 270.979 32.896C271.267 32.96 271.411 33.152 271.411 33.472C271.411 33.664 271.379 33.92 271.315 34.24C270.483 34.176 269.667 34.112 268.867 34.048C268.067 34.016 267.219 34 266.323 34C265.395 34 264.515 34.016 263.683 34.048C262.851 34.112 262.035 34.176 261.235 34.24C261.171 33.92 261.139 33.664 261.139 33.472C261.139 33.152 261.283 32.96 261.571 32.896C262.275 32.768 262.915 32.592 263.491 32.368C264.067 32.112 264.355 31.728 264.355 31.216V18.16C264.355 17.2 264.179 16.512 263.827 16.096C263.507 15.68 262.787 15.424 261.667 15.328C261.251 15.264 261.043 15.04 261.043 14.656C261.043 14.496 261.075 14.288 261.139 14.032C261.555 14.032 262.131 14.016 262.867 13.984C263.635 13.92 264.259 13.856 264.739 13.792C265.475 13.664 266.131 13.536 266.707 13.408C267.283 13.248 267.699 13.168 267.955 13.168C268.403 13.168 268.627 13.408 268.627 13.888C268.627 14.336 268.579 14.88 268.483 15.52C268.387 16.128 268.339 16.944 268.339 17.968C268.435 17.872 268.707 17.568 269.155 17.056C269.603 16.544 270.179 16 270.883 15.424C271.619 14.848 272.451 14.336 273.379 13.888C274.307 13.408 275.331 13.168 276.451 13.168C278.115 13.168 279.347 13.6 280.147 14.464C280.979 15.296 281.475 16.48 281.635 18.016ZM308.036 30.112C308.836 30.944 309.716 31.616 310.676 32.128C311.636 32.608 312.724 32.848 313.94 32.848C314.868 32.848 315.684 32.64 316.388 32.224C317.092 31.808 317.668 31.248 318.116 30.544C318.596 29.808 318.948 28.944 319.172 27.952C319.428 26.928 319.556 25.824 319.556 24.64C319.556 23.424 319.412 22.272 319.124 21.184C318.868 20.064 318.468 19.088 317.924 18.256C317.412 17.424 316.772 16.768 316.004 16.288C315.268 15.808 314.436 15.568 313.508 15.568C312.868 15.568 312.228 15.76 311.588 16.144C310.948 16.496 310.356 16.96 309.812 17.536C309.3 18.112 308.868 18.768 308.516 19.504C308.196 20.208 308.036 20.928 308.036 21.664V30.112ZM304.004 17.968C304.004 17.072 303.844 16.432 303.524 16.048C303.236 15.664 302.548 15.424 301.46 15.328C301.044 15.264 300.836 15.056 300.836 14.704C300.836 14.512 300.868 14.288 300.932 14.032C301.348 14.032 301.908 14.016 302.612 13.984C303.348 13.92 303.956 13.84 304.436 13.744C305.14 13.648 305.764 13.536 306.308 13.408C306.884 13.248 307.3 13.168 307.556 13.168C307.972 13.168 308.18 13.408 308.18 13.888C308.18 14.272 308.148 14.736 308.084 15.28C308.052 15.792 308.036 16.56 308.036 17.584C308.996 16.336 310.068 15.296 311.252 14.464C312.468 13.6 313.956 13.168 315.716 13.168C316.804 13.168 317.844 13.392 318.836 13.84C319.86 14.288 320.756 14.96 321.524 15.856C322.292 16.72 322.9 17.792 323.348 19.072C323.828 20.352 324.068 21.808 324.068 23.44C324.068 25.232 323.732 26.816 323.06 28.192C322.388 29.568 321.556 30.736 320.564 31.696C319.572 32.624 318.484 33.344 317.3 33.856C316.148 34.336 315.076 34.576 314.084 34.576C313.06 34.576 312.052 34.48 311.06 34.288C310.1 34.096 309.092 33.76 308.036 33.28V41.968C308.036 42.8 308.404 43.36 309.14 43.648C309.876 43.968 311.076 44.208 312.74 44.368C313.092 44.432 313.268 44.64 313.268 44.992C313.268 45.184 313.236 45.44 313.172 45.76C312.436 45.696 311.428 45.632 310.148 45.568C308.868 45.536 307.668 45.52 306.548 45.52C305.716 45.52 304.836 45.536 303.908 45.568C302.98 45.632 302.1 45.696 301.268 45.76C301.204 45.44 301.172 45.184 301.172 44.992C301.172 44.672 301.316 44.48 301.604 44.416C302.308 44.256 302.884 44.064 303.332 43.84C303.78 43.616 304.004 43.248 304.004 42.736V17.968ZM337.886 34.24C337.054 34.176 336.206 34.112 335.342 34.048C334.478 34.016 333.614 34 332.75 34C331.886 34 330.99 34.016 330.062 34.048C329.166 34.112 328.318 34.176 327.518 34.24C327.454 33.92 327.422 33.664 327.422 33.472C327.422 33.152 327.566 32.96 327.854 32.896C328.558 32.768 329.214 32.592 329.822 32.368C330.43 32.112 330.734 31.728 330.734 31.216V5.392C330.734 4.368 330.526 3.68 330.11 3.328C329.726 2.944 328.974 2.704 327.854 2.608C327.438 2.544 327.23 2.32 327.23 1.936C327.23 1.744 327.262 1.52 327.326 1.264C327.742 1.264 328.318 1.248 329.054 1.216C329.79 1.152 330.462 1.088 331.07 1.024C331.806 0.927998 332.462 0.799997 333.038 0.639997C333.614 0.479998 334.03 0.399998 334.286 0.399998C334.574 0.399998 334.766 0.463998 334.862 0.591998C334.958 0.719998 335.006 0.895998 335.006 1.12C335.006 1.664 334.958 2.304 334.862 3.04C334.766 3.744 334.718 4.576 334.718 5.536V31.216C334.718 31.728 335.006 32.112 335.582 32.368C336.19 32.592 336.862 32.768 337.598 32.896C337.854 32.96 337.982 33.152 337.982 33.472C337.982 33.664 337.95 33.92 337.886 34.24ZM360.938 32.704C361.29 32.704 361.482 33.04 361.514 33.712C360.682 34.288 359.626 34.576 358.346 34.576C357.642 34.576 357.034 34.464 356.522 34.24C356.01 34.048 355.578 33.776 355.226 33.424C354.874 33.072 354.602 32.672 354.41 32.224C354.218 31.776 354.09 31.312 354.026 30.832C353.226 32.272 352.266 33.264 351.146 33.808C350.058 34.32 348.794 34.576 347.354 34.576C346.714 34.576 346.026 34.512 345.29 34.384C344.586 34.288 343.914 34.064 343.274 33.712C342.634 33.36 342.106 32.864 341.69 32.224C341.274 31.584 341.066 30.736 341.066 29.68C341.066 28.496 341.338 27.504 341.882 26.704C342.458 25.872 343.178 25.2 344.042 24.688C344.938 24.144 345.898 23.712 346.922 23.392C347.978 23.072 348.986 22.8 349.946 22.576C350.49 22.48 350.986 22.384 351.434 22.288C351.914 22.16 352.33 22.032 352.682 21.904C353.13 21.776 353.402 21.6 353.498 21.376C353.626 21.152 353.69 20.72 353.69 20.08C353.69 18.576 353.402 17.344 352.826 16.384C352.25 15.392 351.226 14.896 349.754 14.896C349.21 14.896 348.746 14.96 348.362 15.088C347.978 15.216 347.658 15.424 347.402 15.712C347.146 15.968 346.922 16.32 346.73 16.768C346.538 17.216 346.346 17.744 346.154 18.352C346.058 18.704 345.834 18.96 345.482 19.12C345.162 19.28 344.602 19.472 343.802 19.696C343.61 19.76 343.37 19.824 343.082 19.888C342.794 19.952 342.554 19.984 342.362 19.984C342.042 19.984 341.882 19.648 341.882 18.976C341.882 18.272 342.154 17.568 342.698 16.864C343.242 16.16 343.93 15.536 344.762 14.992C345.626 14.448 346.554 14.016 347.546 13.696C348.538 13.344 349.482 13.168 350.378 13.168C351.498 13.168 352.506 13.264 353.402 13.456C354.298 13.648 355.066 14 355.706 14.512C356.346 15.024 356.826 15.712 357.146 16.576C357.498 17.44 357.674 18.56 357.674 19.936V28.192C357.674 29.312 357.706 30.128 357.77 30.64C357.866 31.12 357.994 31.504 358.154 31.792C358.378 32.24 358.618 32.544 358.874 32.704C359.162 32.832 359.45 32.896 359.738 32.896C360.09 32.896 360.33 32.864 360.458 32.8C360.618 32.736 360.778 32.704 360.938 32.704ZM353.69 23.344L352.154 23.584C351.322 23.744 350.506 23.936 349.706 24.16C348.938 24.384 348.25 24.704 347.642 25.12C347.034 25.504 346.538 26 346.154 26.608C345.802 27.216 345.626 27.968 345.626 28.864C345.626 30.08 345.93 31.008 346.538 31.648C347.178 32.288 347.962 32.608 348.89 32.608C349.498 32.608 350.09 32.48 350.666 32.224C351.274 31.936 351.786 31.552 352.202 31.072C352.65 30.56 353.002 29.968 353.258 29.296C353.546 28.624 353.69 27.888 353.69 27.088V23.344ZM374.655 31.168C374.815 31.008 374.943 30.912 375.039 30.88C375.167 30.848 375.263 30.832 375.327 30.832C375.615 30.832 375.871 31.04 376.095 31.456C375.263 32.384 374.367 33.136 373.407 33.712C372.447 34.288 371.423 34.576 370.335 34.576C369.695 34.576 369.087 34.496 368.511 34.336C367.935 34.208 367.439 33.936 367.023 33.52C366.607 33.104 366.271 32.544 366.015 31.84C365.791 31.104 365.679 30.16 365.679 29.008V15.76H362.799V15.232C362.799 15.008 362.831 14.8 362.895 14.608C362.991 14.416 363.167 14.32 363.423 14.32C364.287 14.32 364.991 14.096 365.535 13.648C366.079 13.2 366.527 12.624 366.879 11.92C367.263 11.152 367.599 10.432 367.887 9.76C368.175 9.088 368.495 8.752 368.847 8.752H369.711V13.744H375.327C375.327 14.416 375.247 14.928 375.087 15.28C374.959 15.6 374.703 15.76 374.319 15.76H369.711V27.664C369.711 28.688 369.759 29.52 369.855 30.16C369.951 30.768 370.095 31.248 370.287 31.6C370.479 31.92 370.703 32.128 370.959 32.224C371.215 32.32 371.503 32.368 371.823 32.368C372.367 32.368 372.863 32.256 373.311 32.032C373.791 31.776 374.239 31.488 374.655 31.168ZM395.001 29.536C395.225 29.312 395.465 29.2 395.721 29.2C396.041 29.2 396.345 29.472 396.633 30.016C396.217 30.592 395.737 31.152 395.193 31.696C394.649 32.24 393.993 32.736 393.225 33.184C392.489 33.6 391.641 33.936 390.681 34.192C389.721 34.448 388.617 34.576 387.369 34.576C386.089 34.576 384.873 34.368 383.721 33.952C382.569 33.536 381.545 32.896 380.649 32.032C379.785 31.168 379.081 30.096 378.537 28.816C378.025 27.536 377.769 26.032 377.769 24.304C377.769 22.672 378.073 21.168 378.681 19.792C379.321 18.416 380.137 17.248 381.129 16.288C382.121 15.296 383.209 14.528 384.393 13.984C385.609 13.44 386.777 13.168 387.897 13.168C390.873 13.168 393.033 14.032 394.377 15.76C395.753 17.488 396.441 19.744 396.441 22.528C396.441 22.72 396.345 22.816 396.153 22.816L382.233 23.44C382.233 24.688 382.409 25.84 382.761 26.896C383.113 27.952 383.609 28.864 384.249 29.632C384.889 30.4 385.657 31.008 386.553 31.456C387.481 31.872 388.521 32.08 389.673 32.08C390.697 32.08 391.673 31.84 392.601 31.36C393.561 30.88 394.361 30.272 395.001 29.536ZM387.225 14.896C385.625 14.896 384.377 15.52 383.481 16.768C382.585 18.016 382.137 19.648 382.137 21.664L391.209 21.232C391.689 21.232 391.929 21.024 391.929 20.608C391.929 20 391.833 19.36 391.641 18.688C391.449 18.016 391.161 17.408 390.777 16.864C390.393 16.288 389.897 15.824 389.289 15.472C388.713 15.088 388.025 14.896 387.225 14.896ZM412.946 19.072C412.69 19.072 412.498 19.024 412.37 18.928C412.274 18.8 412.21 18.672 412.178 18.544C411.954 17.232 411.426 16.304 410.594 15.76C409.794 15.184 408.786 14.896 407.57 14.896C406.642 14.896 405.81 15.168 405.074 15.712C404.37 16.224 404.018 16.944 404.018 17.872C404.018 18.704 404.338 19.408 404.978 19.984C405.65 20.528 406.85 21.072 408.578 21.616C409.506 21.904 410.354 22.224 411.122 22.576C411.922 22.928 412.594 23.36 413.138 23.872C413.714 24.352 414.162 24.96 414.482 25.696C414.802 26.4 414.962 27.248 414.962 28.24C414.962 29.072 414.802 29.872 414.482 30.64C414.194 31.408 413.73 32.08 413.09 32.656C412.482 33.232 411.698 33.696 410.738 34.048C409.81 34.4 408.69 34.576 407.378 34.576C406.354 34.576 405.202 34.448 403.922 34.192C402.674 33.968 401.538 33.568 400.514 32.992C400.45 32.16 400.386 31.296 400.322 30.4C400.29 29.472 400.274 28.544 400.274 27.616H400.754C401.074 27.616 401.346 27.68 401.57 27.808C401.794 27.904 401.922 28.08 401.954 28.336C402.082 29.68 402.594 30.768 403.49 31.6C404.418 32.4 405.698 32.8 407.33 32.8C408.642 32.8 409.65 32.512 410.354 31.936C411.058 31.328 411.41 30.512 411.41 29.488C411.41 28.432 411.026 27.632 410.258 27.088C409.49 26.512 408.354 26 406.85 25.552C404.962 24.976 403.474 24.224 402.386 23.296C401.33 22.368 400.802 21.008 400.802 19.216C400.802 18.384 400.962 17.6 401.282 16.864C401.602 16.128 402.05 15.488 402.626 14.944C403.202 14.4 403.906 13.968 404.738 13.648C405.57 13.328 406.498 13.168 407.522 13.168C408.802 13.168 410.002 13.344 411.122 13.696C412.274 14.016 413.17 14.368 413.81 14.752C413.842 15.008 413.874 15.328 413.906 15.712C413.938 16.064 413.954 16.448 413.954 16.864C413.986 17.248 414.002 17.648 414.002 18.064C414.034 18.448 414.05 18.8 414.05 19.12L412.946 19.072Z" fill="black"/>
</svg>